<svg width="381" height="287" viewBox="0 0 381 287" fill="none" xmlns="http://www.w3.org/2000/svg">
<g filter="url(#filter0_d_29_3)">
<path d="M38.21 160.25H26.59V125.89H38.21V160.25Z" fill="#787B7F"/>
<path d="M38.21 143.07H26.59V160H38.21V143.07Z" fill="#515357"/>
<path d="M38.8 160.84H26V125.3H38.8V160.84ZM27.18 159.66H37.62V126.47H27.18V159.66Z" fill="#414246"/>
<path d="M363.97 16.48H53.74V0H363.97V16.48ZM54.92 15.3H362.8V1.18H54.92V15.31V15.3Z" fill="#909398"/>
<path d="M362.8 1.18005H54.92V15.3101H362.8V1.18005Z" fill="#C5C7CC"/>
<path d="M362.8 6.04004H54.92V15.3H362.8V6.04004Z" fill="#9A9DA2"/>
<path d="M360.3 49.7901H351.04V15.3H360.3V49.7901ZM352.22 48.6101H359.12V16.48H352.22V48.62V48.6101Z" fill="#909398"/>
<path d="M359.12 16.4801H352.22V48.6201H359.12V16.4801Z" fill="#C5C7CC"/>
<path d="M356.67 16.4801V46.7201H352.22V48.6101H359.12V16.4801H356.67Z" fill="#9A9DA2"/>
<path d="M65.86 16.4801H58.96V48.6201H65.86V16.4801Z" fill="#C5C7CC"/>
<path d="M63.84 16.4801V46.8201H58.96V48.6101H65.86V16.4801H63.84Z" fill="#9A9DA2"/>
<path d="M67.04 49.7901H57.78V15.3H67.04V49.7901ZM58.96 48.6101H65.86V16.48H58.96V48.62V48.6101Z" fill="#909398"/>
<path d="M75.2 257.28H62.41V262.04H75.2V257.28Z" fill="#6F7173"/>
<path d="M75.79 262.63H61.82V256.69H75.79V262.63ZM63 261.45H74.61V257.87H63V261.45Z" fill="#414246"/>
<path d="M355.67 257.28H342.88V262.04H355.67V257.28Z" fill="#6F7173"/>
<path d="M356.26 262.63H342.29V256.69H356.26V262.63ZM343.47 261.45H355.09V257.87H343.47V261.45Z" fill="#414246"/>
<path d="M379.8 257.41H37.58V100.47L39.27 98.64L37.58 96.91V49.33H379.8V96.91L378.4 98.64L379.8 100.47V257.41Z" fill="#C5C7CC"/>
<path d="M379.8 48.61H367.49V237.59H37.58V256.69H379.8V99.75L378.4 97.92L379.8 96.19V48.61Z" fill="#B1B1B6"/>
<path d="M380.26 257.87H37.12V100.29L38.64 98.65L37.12 97V48.88H380.26V96.99L378.98 98.65L380.26 100.31V257.87ZM38.03 256.96H379.35V100.62L377.82 98.64L379.35 96.65V49.79H38.03V96.63L39.9 98.64L38.03 100.65V256.96Z" fill="#909398"/>
<path d="M153.19 160C157.51 168.06 159.97 177.26 159.97 187.05C159.97 218.69 134.33 244.33 102.69 244.33C83.01 244.33 65.64 234.4 55.33 219.27C64.99 237.26 83.58 246.97 105.43 246.97C137.07 246.97 162.14 221.9 162.14 190.26C162.14 178.31 159.44 169.18 153.18 160H153.19Z" fill="#B1B1B6"/>
<path d="M43.53 179.94C42.75 189.63 44.25 200.1 48.98 208.64C46.4 202.12 44.96 195.02 44.96 187.58C44.96 161.02 63.04 138.69 87.56 132.21C56.48 137.08 44.76 165.24 43.54 179.94H43.53Z" fill="#BCBCC1"/>
<path d="M159.81 187.24C159.81 218.88 134.17 244.52 102.53 244.52C70.89 244.52 45.25 218.88 45.25 187.24C45.25 155.6 70.9 129.96 102.53 129.96C134.16 129.96 159.81 155.61 159.81 187.24Z" fill="#C8C8CD"/>
<path d="M156.67 187.24C156.67 217.14 132.43 241.38 102.53 241.38C72.63 241.38 48.39 217.14 48.39 187.24C48.39 157.34 72.63 133.1 102.53 133.1C132.43 133.1 156.67 157.34 156.67 187.24Z" fill="#414042"/>
<path d="M64.84 149.17C43.58 170.2 43.4 204.48 64.43 225.73C66.65 227.97 69.03 229.97 71.51 231.75C67.87 221.52 70.96 193.91 90.25 174.83C112.7 152.62 139.13 151.02 144.76 153.32C143.7 152.04 142.59 150.79 141.4 149.58C120.37 128.32 86.09 128.14 64.84 149.17Z" fill="#3E3E3F"/>
<path d="M133.01 224.09C111.58 241.81 83.49 241.26 62.82 220.08C80.93 241.98 113.48 245.06 135.38 226.95C156.84 209.2 160.22 177.59 143.29 155.72C157.99 178.59 154 206.73 133.01 224.09Z" fill="#545557"/>
<path d="M74.55 153.43C58.58 169.4 45.91 195.78 62.84 220.07C44.73 198.17 47.81 165.62 69.71 147.51C91.17 129.76 122.85 132.38 141.16 153.11C121.45 134.38 90.57 137.42 74.56 153.44L74.55 153.43Z" fill="#2D2D2F"/>
<path d="M102.53 241.97C72.35 241.97 47.8 217.42 47.8 187.24C47.8 157.06 72.35 132.51 102.53 132.51C132.71 132.51 157.26 157.06 157.26 187.24C157.26 217.42 132.71 241.97 102.53 241.97ZM102.53 133.69C73 133.69 48.98 157.71 48.98 187.24C48.98 216.77 73 240.79 102.53 240.79C132.06 240.79 156.08 216.77 156.08 187.24C156.08 157.71 132.06 133.69 102.53 133.69Z" fill="#898B8D"/>
<path d="M120.58 187.24C120.58 197.21 112.5 205.29 102.54 205.29C92.58 205.29 84.49 197.21 84.49 187.24C84.49 177.27 92.57 169.2 102.54 169.2C112.51 169.2 120.58 177.28 120.58 187.24Z" fill="#545456"/>
<path d="M104.16 187.5C107.52 183.43 108.93 179.04 107.29 177.69C105.66 176.34 101.61 178.55 98.24 182.62C94.88 186.69 93.47 191.08 95.11 192.44C96.74 193.79 100.79 191.58 104.16 187.51V187.5Z" fill="#616264"/>
<path d="M111.64 171.59C115.9 188.44 107.98 200.14 90.15 200.22C93.39 203.35 97.8 205.29 102.67 205.29C112.64 205.29 120.72 197.21 120.72 187.24C120.72 180.54 117.06 174.71 111.64 171.59Z" fill="#464547"/>
<path d="M102.53 205.87C92.25 205.87 83.9 197.51 83.9 187.23C83.9 176.95 92.26 168.6 102.53 168.6C112.8 168.6 121.16 176.96 121.16 187.23C121.16 197.5 112.8 205.87 102.53 205.87ZM102.53 169.78C92.9 169.78 85.07 177.61 85.07 187.24C85.07 196.87 92.9 204.7 102.53 204.7C112.16 204.7 119.99 196.87 119.99 187.24C119.99 177.61 112.16 169.78 102.53 169.78Z" fill="#3B3B3C"/>
<path d="M366.75 160C371.07 168.06 373.53 177.26 373.53 187.05C373.53 218.69 347.89 244.33 316.25 244.33C296.57 244.33 279.21 234.4 268.89 219.27C278.55 237.26 297.14 246.97 318.99 246.97C350.63 246.97 375.7 221.9 375.7 190.26C375.7 178.31 373 169.18 366.74 160H366.75Z" fill="#B1B1B6"/>
<path d="M257.09 179.94C256.31 189.63 257.81 200.1 262.54 208.64C259.96 202.12 258.52 195.02 258.52 187.58C258.52 161.02 276.6 138.69 301.12 132.21C270.04 137.08 258.32 165.24 257.1 179.94H257.09Z" fill="#BCBCC1"/>
<path d="M373.37 187.24C373.37 218.88 347.73 244.52 316.09 244.52C284.45 244.52 258.81 218.88 258.81 187.24C258.81 155.6 284.45 129.96 316.09 129.96C347.73 129.96 373.37 155.61 373.37 187.24Z" fill="#C8C8CD"/>
<path d="M370.23 187.24C370.23 217.14 345.99 241.38 316.09 241.38C286.19 241.38 261.95 217.14 261.95 187.24C261.95 157.34 286.19 133.1 316.09 133.1C345.99 133.1 370.23 157.34 370.23 187.24Z" fill="#414042"/>
<path d="M278.4 149.17C257.15 170.2 256.96 204.48 277.99 225.73C280.21 227.97 282.59 229.97 285.07 231.75C281.43 221.52 284.52 193.91 303.81 174.83C326.26 152.62 352.69 151.02 358.32 153.32C357.26 152.04 356.15 150.79 354.96 149.58C333.93 128.32 299.65 128.14 278.4 149.17Z" fill="#3E3E3F"/>
<path d="M346.57 224.09C325.14 241.81 297.05 241.26 276.38 220.08C294.49 241.98 327.04 245.06 348.94 226.95C370.4 209.2 373.77 177.59 356.85 155.72C371.55 178.59 367.56 206.73 346.57 224.09Z" fill="#545557"/>
<path d="M288.11 153.43C272.14 169.4 259.47 195.78 276.4 220.07C258.29 198.17 261.37 165.62 283.27 147.51C304.73 129.76 336.41 132.38 354.72 153.11C335.01 134.38 304.13 137.42 288.12 153.44L288.11 153.43Z" fill="#2D2D2F"/>
<path d="M316.09 241.97C285.91 241.97 261.36 217.42 261.36 187.24C261.36 157.06 285.91 132.51 316.09 132.51C346.27 132.51 370.82 157.06 370.82 187.24C370.82 217.42 346.27 241.97 316.09 241.97ZM316.09 133.69C286.56 133.69 262.54 157.71 262.54 187.24C262.54 216.77 286.56 240.79 316.09 240.79C345.62 240.79 369.64 216.77 369.64 187.24C369.64 157.71 345.62 133.69 316.09 133.69Z" fill="#898B8D"/>
<path d="M334.14 187.24C334.14 197.21 326.06 205.29 316.09 205.29C306.12 205.29 298.04 197.21 298.04 187.24C298.04 177.27 306.12 169.2 316.09 169.2C326.06 169.2 334.14 177.28 334.14 187.24Z" fill="#545456"/>
<path d="M316.56 188.1C319.92 184.03 321.33 179.64 319.69 178.29C318.06 176.94 314.01 179.15 310.64 183.22C307.27 187.29 305.87 191.69 307.5 193.04C309.13 194.39 313.18 192.18 316.55 188.11L316.56 188.1Z" fill="#616264"/>
<path d="M325.2 171.59C329.95 189.76 319 202.06 303.71 200.22C306.96 203.35 311.36 205.29 316.23 205.29C326.2 205.29 334.28 197.21 334.28 187.24C334.28 180.54 330.62 174.71 325.2 171.59Z" fill="#464547"/>
<path d="M316.09 205.87C305.82 205.87 297.45 197.51 297.45 187.23C297.45 176.95 305.81 168.6 316.09 168.6C326.37 168.6 334.72 176.96 334.72 187.23C334.72 197.5 326.36 205.87 316.09 205.87ZM316.09 169.78C306.46 169.78 298.63 177.61 298.63 187.24C298.63 196.87 306.46 204.7 316.09 204.7C325.72 204.7 333.55 196.87 333.55 187.24C333.55 177.61 325.72 169.78 316.09 169.78Z" fill="#3B3B3C"/>
<path d="M251.73 198.53H166.08L166.88 176.21H250.97L251.73 198.53Z" fill="#B2B5B9"/>
<path d="M252.03 198.83H165.77L166.59 175.9H251.25L252.02 198.83H252.03ZM166.38 198.21H251.42L250.68 176.5H167.16L166.38 198.21Z" fill="#A9ABB0"/>
<path d="M253 219.68H164.72V163.18H253V219.68ZM164.72 219.68H253L250.59 165.58H167.29L164.72 219.68Z" fill="#525057"/>
<mask id="mask0_29_3" style="mask-type:luminance" maskUnits="userSpaceOnUse" x="178" y="176" width="61" height="22">
<path d="M238.87 176.53H178.06V197.96H238.87V176.53Z" fill="white"/>
</mask>
<g mask="url(#mask0_29_3)">
<path d="M248.9 161.93H168.58C167.1 161.93 165.89 163.14 165.89 164.64V213.89C165.89 215.39 167.09 216.59 168.58 216.59H248.9C250.38 216.59 251.59 215.38 251.59 213.89V164.64C251.59 163.14 250.38 161.93 248.9 161.93ZM174.61 212.69C174.19 212.69 173.85 212.35 173.85 211.93C173.85 211.51 174.19 211.17 174.61 211.17C175.03 211.17 175.37 211.51 175.37 211.93C175.37 212.35 175.03 212.69 174.61 212.69ZM187.49 215.01C186.93 215.01 186.48 214.56 186.48 213.99C186.48 213.42 186.93 212.97 187.49 212.97C188.05 212.97 188.51 213.43 188.51 213.99C188.51 214.55 188.05 215.01 187.49 215.01ZM190.28 192.11C187.29 192.11 184.87 189.69 184.87 186.7C184.87 183.71 187.29 181.29 190.28 181.29C193.27 181.29 195.69 183.71 195.69 186.7C195.69 189.69 193.27 192.11 190.28 192.11ZM196.94 213.28C196.94 213.59 196.69 213.83 196.39 213.83H195.41C195.11 213.83 194.86 213.58 194.86 213.28V212.3C194.86 212 195.11 211.75 195.41 211.75H196.39C196.7 211.75 196.94 212 196.94 212.3V213.28ZM197.31 180.86H219.63V192.55H197.31V180.86ZM220.94 213.58C220.94 213.88 220.69 214.13 220.39 214.13H219.41C219.11 214.13 218.86 213.88 218.86 213.58V212.6C218.86 212.3 219.11 212.05 219.41 212.05H220.39C220.69 212.05 220.94 212.3 220.94 212.6V213.58ZM228.3 215.31C227.73 215.31 227.28 214.85 227.28 214.29C227.28 213.73 227.74 213.27 228.3 213.27C228.86 213.27 229.32 213.73 229.32 214.29C229.32 214.85 228.86 215.31 228.3 215.31ZM226.79 192.11C223.8 192.11 221.38 189.69 221.38 186.7C221.38 183.71 223.8 181.29 226.79 181.29C229.78 181.29 232.2 183.71 232.2 186.7C232.2 189.69 229.78 192.11 226.79 192.11ZM243.29 212.69C242.87 212.69 242.53 212.35 242.53 211.93C242.53 211.51 242.87 211.17 243.29 211.17C243.71 211.17 244.05 211.51 244.05 211.93C244.05 212.35 243.71 212.69 243.29 212.69Z" fill="#523118"/>
<path d="M248.9 216.77H168.58C167 216.77 165.71 215.48 165.71 213.89V164.64C165.71 163.05 167 161.75 168.58 161.75H248.9C250.48 161.75 251.77 163.04 251.77 164.64V213.89C251.77 215.48 250.48 216.77 248.9 216.77ZM168.58 162.11C167.2 162.11 166.07 163.24 166.07 164.63V213.88C166.07 215.27 167.19 216.4 168.58 216.4H248.9C250.28 216.4 251.41 215.27 251.41 213.88V164.63C251.41 163.24 250.29 162.11 248.9 162.11H168.58ZM219.8 192.73H197.12V180.68H219.8V192.73ZM197.48 192.37H219.44V181.04H197.48V192.37ZM226.78 192.29C223.7 192.29 221.19 189.78 221.19 186.7C221.19 183.62 223.7 181.11 226.78 181.11C229.86 181.11 232.37 183.61 232.37 186.7C232.37 189.79 229.87 192.29 226.78 192.29ZM226.78 181.48C223.9 181.48 221.55 183.82 221.55 186.71C221.55 189.6 223.89 191.94 226.78 191.94C229.67 191.94 232 189.6 232 186.71C232 183.82 229.66 181.48 226.78 181.48ZM190.27 192.29C187.19 192.29 184.68 189.78 184.68 186.7C184.68 183.62 187.18 181.11 190.27 181.11C193.36 181.11 195.86 183.61 195.86 186.7C195.86 189.79 193.35 192.29 190.27 192.29ZM190.27 181.48C187.39 181.48 185.04 183.82 185.04 186.71C185.04 189.6 187.38 191.94 190.27 191.94C193.16 191.94 195.5 189.6 195.5 186.71C195.5 183.82 193.16 181.48 190.27 181.48Z" fill="#301500"/>
<path d="M190.28 164.85C178.23 164.85 168.43 174.66 168.43 186.7C168.43 198.74 178.23 208.55 190.28 208.55C202.33 208.55 212.13 198.75 212.13 186.7C212.13 174.65 202.33 164.85 190.28 164.85ZM190.28 192.11C187.29 192.11 184.87 189.69 184.87 186.7C184.87 183.71 187.29 181.29 190.28 181.29C193.27 181.29 195.69 183.71 195.69 186.7C195.69 189.69 193.27 192.11 190.28 192.11Z" fill="#27171A"/>
<path d="M226.78 176.57C221.19 176.57 216.64 181.12 216.64 186.71C216.64 192.3 221.19 196.84 226.78 196.84C232.37 196.84 236.91 192.29 236.91 186.71C236.91 181.13 232.36 176.57 226.78 176.57ZM226.78 192.11C223.79 192.11 221.37 189.69 221.37 186.7C221.37 183.71 223.79 181.29 226.78 181.29C229.77 181.29 232.19 183.71 232.19 186.7C232.19 189.69 229.77 192.11 226.78 192.11Z" fill="#27171A"/>
<path d="M190.28 192.29C187.2 192.29 184.69 189.78 184.69 186.7C184.69 183.62 187.19 181.11 190.28 181.11C193.37 181.11 195.87 183.61 195.87 186.7C195.87 189.79 193.36 192.29 190.28 192.29ZM190.28 181.48C187.4 181.48 185.05 183.82 185.05 186.71C185.05 189.6 187.39 191.94 190.28 191.94C193.17 191.94 195.51 189.6 195.51 186.71C195.51 183.82 193.17 181.48 190.28 181.48Z" fill="white"/>
<path d="M190.28 181.91C187.63 181.91 185.48 184.06 185.48 186.71C185.48 189.36 187.64 191.51 190.28 191.51C192.92 191.51 195.08 189.35 195.08 186.71C195.08 184.07 192.93 181.91 190.28 181.91ZM194.19 188.6L193.15 187.95L192.29 189.33L193.22 189.91C192.5 190.57 191.57 190.98 190.54 191.04L190.61 189.79L188.98 189.7L188.92 190.83C187.95 190.51 187.14 189.85 186.61 189.01L187.76 188.45L187.05 186.98L186.01 187.48C185.97 187.23 185.94 186.97 185.94 186.7C185.94 185.92 186.15 185.2 186.51 184.57L187.56 185.31L188.5 183.98L187.57 183.32C188.21 182.8 189 182.46 189.87 182.38V183.64H191.5V182.53C192.47 182.81 193.3 183.42 193.87 184.23L192.79 184.83L193.58 186.25L194.54 185.72C194.61 186.04 194.66 186.36 194.66 186.7C194.66 187.38 194.5 188.02 194.22 188.59L194.19 188.6Z" fill="white"/>
<path d="M226.78 192.29C223.7 192.29 221.19 189.78 221.19 186.7C221.19 183.62 223.7 181.11 226.78 181.11C229.86 181.11 232.37 183.61 232.37 186.7C232.37 189.79 229.87 192.29 226.78 192.29ZM226.78 181.48C223.9 181.48 221.55 183.82 221.55 186.71C221.55 189.6 223.89 191.94 226.78 191.94C229.67 191.94 232 189.6 232 186.71C232 183.82 229.66 181.48 226.78 181.48Z" fill="white"/>
<path d="M226.78 181.91C224.13 181.91 221.98 184.06 221.98 186.71C221.98 189.36 224.13 191.51 226.78 191.51C229.43 191.51 231.58 189.35 231.58 186.71C231.58 184.07 229.43 181.91 226.78 181.91ZM230.69 188.6L229.65 187.95L228.79 189.33L229.72 189.91C229 190.57 228.07 190.98 227.04 191.04L227.11 189.79L225.49 189.7L225.43 190.83C224.46 190.51 223.65 189.85 223.12 189.01L224.27 188.45L223.56 186.98L222.52 187.48C222.48 187.23 222.45 186.97 222.45 186.7C222.45 185.92 222.66 185.2 223.01 184.57L224.06 185.31L225 183.98L224.07 183.32C224.71 182.8 225.5 182.46 226.37 182.38V183.64H228V182.53C228.97 182.81 229.8 183.42 230.37 184.23L229.29 184.83L230.08 186.25L231.04 185.72C231.11 186.04 231.16 186.36 231.16 186.7C231.16 187.38 231 188.02 230.72 188.59L230.69 188.6Z" fill="white"/>
<path d="M227.88 193.36H189.43C187.53 193.36 183.62 191.77 183.62 186.87C183.78 182 187.79 180.04 189.43 180.04H227.88C229.07 180.04 233.31 181.66 233.51 186.79C233.51 191.72 229.07 193.35 227.88 193.35V193.36ZM189.43 180.77C187.99 180.77 184.48 182.53 184.34 186.89C184.34 191.24 187.77 192.65 189.43 192.65H227.88C228.92 192.65 232.79 191.19 232.79 186.83C232.62 182.29 228.87 180.78 227.88 180.78H189.43V180.77Z" fill="white"/>
<path opacity="0.7" d="M226.78 211.04C215.76 211.04 209.58 204.5 208.73 203.54C207.82 204.48 201.05 211.04 190.27 211.04C173.45 211.04 167.58 196.57 167.52 196.42V196.37L167.51 174.04L167.58 174L184.33 163.84H232.78L232.81 163.86L249.69 173.29V196.45C246 203.11 239.04 211.05 226.78 211.05V211.04ZM208.75 203.13L208.85 203.25C208.91 203.33 215.09 210.77 226.79 210.77C238.49 210.77 245.79 202.93 249.43 196.33V173.43L232.72 164.1H184.41L167.79 174.18V196.33C168.06 196.98 173.96 210.76 190.28 210.76C201.71 210.76 208.58 203.31 208.64 203.23L208.75 203.11V203.13Z" fill="#301500"/>
<path d="M169.99 174.72V198.35H247.09V174.72H169.99ZM190.28 192.11C187.29 192.11 184.87 189.69 184.87 186.7C184.87 183.71 187.29 181.29 190.28 181.29C193.27 181.29 195.69 183.71 195.69 186.7C195.69 189.69 193.27 192.11 190.28 192.11ZM219.63 192.55H197.31V180.86H219.63V192.55ZM226.79 192.11C223.8 192.11 221.38 189.69 221.38 186.7C221.38 183.71 223.8 181.29 226.79 181.29C229.78 181.29 232.2 183.71 232.2 186.7C232.2 189.69 229.78 192.11 226.79 192.11Z" fill="#EF3A24"/>
<path d="M178.06 178.42V194.78H238.87V178.42H178.06ZM190.28 192.11C187.29 192.11 184.87 189.69 184.87 186.7C184.87 183.71 187.29 181.29 190.28 181.29C193.27 181.29 195.69 183.71 195.69 186.7C195.69 189.69 193.27 192.11 190.28 192.11ZM219.63 192.55H197.31V180.86H219.63V192.55ZM226.79 192.11C223.8 192.11 221.38 189.69 221.38 186.7C221.38 183.71 223.8 181.29 226.79 181.29C229.78 181.29 232.2 183.71 232.2 186.7C232.2 189.69 229.78 192.11 226.79 192.11Z" fill="#20212B"/>
<path opacity="0.6" d="M219.63 180.86H197.31V192.55H219.63V180.86Z" fill="#806448"/>
</g>
<path opacity="0.6" d="M238.87 197.95H178.05V176.52H238.87V197.95Z" fill="#48515B"/>
<path opacity="0.3" d="M222.22 176.53H206.91L178.06 197.95H195.31L222.22 176.53Z" fill="white"/>
<path opacity="0.3" d="M231.37 176.53L205.53 197.95H210.52L236.08 176.53H231.37Z" fill="white"/>
<path d="M253 249.9H164.72V221.99H253V249.9ZM165.9 248.81H251.83V223.08H165.9V248.81Z" fill="#A4A7AB"/>
<path d="M379.35 100.62L38.03 100.64L39.9 98.63H377.82L379.35 100.62Z" fill="#EBEBEC"/>
<path d="M379.35 96.65L38.03 96.63L39.9 98.63H377.82L379.35 96.65Z" fill="#9B9DA0"/>
<path d="M253 124.34H165.54V103.54H253V124.34ZM166.71 123.16H251.84V104.72H166.71V123.16Z" fill="#4F5155"/>
<path d="M254.24 130.25H164.36L165.54 124.34H253L254.25 130.25H254.24Z" fill="#DEDFDD"/>
<path d="M253 153.83H164.37V140.92H253V153.83ZM165.54 152.65H251.82V142.1H165.54V152.65Z" fill="#A4A7AB"/>
<path d="M247.21 147.61C247.21 148.01 246.89 148.33 246.49 148.33H234.78C234.38 148.33 234.06 148.01 234.06 147.61C234.06 147.22 234.38 146.89 234.78 146.89H246.49C246.89 146.89 247.21 147.21 247.21 147.61Z" fill="#3B3B3C"/>
<path d="M243.64 150.08H237.65V145.05H243.64V150.08Z" fill="#5A5B5D"/>
<path d="M242.8 145.05V148.64H237.65V150.08H243.64V145.05H242.8Z" fill="#4A4B4C"/>
<path d="M228.98 147.61C228.98 148.01 228.66 148.33 228.26 148.33H216.55C216.16 148.33 215.83 148.01 215.83 147.61C215.83 147.22 216.15 146.89 216.55 146.89H228.26C228.66 146.89 228.98 147.21 228.98 147.61Z" fill="#3B3B3C"/>
<path d="M225.41 150.08H219.42V145.05H225.41V150.08Z" fill="#5A5B5D"/>
<path d="M224.57 145.05V148.64H219.41V150.08H225.41V145.05H224.57Z" fill="#4A4B4C"/>
<path d="M257.48 256.96H161.56V100.64H257.48V256.95V256.96ZM162.72 256.96H256.32L256.3 101.82H162.74L162.72 256.96Z" fill="#A4A7AB"/>
<path d="M178.54 245.07L172.59 245.15L172.44 246.32H178.95V225.56L178.56 226.74L178.54 245.07Z" fill="#5A5B5D"/>
<path d="M172.44 225.59V246.3C172.74 245.81 172.96 226.74 172.96 226.74L172.44 225.59Z" fill="#5A5B5D"/>
<path d="M178.95 225.56H172.44L172.96 226.74H178.56L178.95 225.56Z" fill="#464547"/>
<path d="M178.56 226.74H172.96L172.78 235.89C174.73 235.74 176.63 235.8 178.55 235.78V226.74H178.56Z" fill="#9A9DA2"/>
<path d="M172.78 235.88L172.59 245.14L178.54 245.06V235.77C176.63 235.8 174.72 235.73 172.78 235.88Z" fill="#ADB0B5"/>
<g style="mix-blend-mode:multiply">
<path d="M178.95 225.56L181.07 247.74H176.82L172.44 246.32H178.95V225.56Z" fill="#8D9092"/>
</g>
<path d="M194.51 245.07L188.56 245.15L188.41 246.32H194.91V225.56L194.52 226.74L194.51 245.07Z" fill="#5A5B5D"/>
<path d="M188.41 225.59V246.3C188.7 245.81 188.93 226.74 188.93 226.74L188.41 225.59Z" fill="#5A5B5D"/>
<path d="M194.91 225.56H188.41L188.93 226.74H194.52L194.91 225.56Z" fill="#464547"/>
<path d="M194.52 226.74H188.92L188.74 235.89C190.69 235.74 192.59 235.8 194.51 235.78V226.74H194.52Z" fill="#9A9DA2"/>
<path d="M188.74 235.88L188.55 245.14L194.5 245.06V235.77C192.59 235.8 190.68 235.73 188.74 235.88Z" fill="#ADB0B5"/>
<g style="mix-blend-mode:multiply">
<path d="M194.91 225.56L197.04 247.74H192.78L188.41 246.32H194.91V225.56Z" fill="#8D9092"/>
</g>
<path d="M210.47 245.07L204.52 245.15L204.37 246.32H210.87V225.56L210.49 226.74L210.47 245.07Z" fill="#5A5B5D"/>
<path d="M204.37 225.59V246.3C204.67 245.81 204.89 226.74 204.89 226.74L204.37 225.59Z" fill="#5A5B5D"/>
<path d="M210.87 225.56H204.37L204.89 226.74H210.49L210.87 225.56Z" fill="#464547"/>
<path d="M210.49 226.74H204.89L204.71 235.89C206.66 235.74 208.56 235.8 210.48 235.78V226.74H210.49Z" fill="#9A9DA2"/>
<path d="M204.71 235.88L204.52 245.14L210.47 245.06V235.77C208.56 235.8 206.65 235.73 204.71 235.88Z" fill="#ADB0B5"/>
<g style="mix-blend-mode:multiply">
<path d="M210.87 225.56L213 247.74H208.75L204.37 246.32H210.87V225.56Z" fill="#8D9092"/>
</g>
<path d="M226.43 245.07L220.48 245.15L220.33 246.32H226.84V225.56L226.45 226.74L226.43 245.07Z" fill="#5A5B5D"/>
<path d="M220.33 225.59V246.3C220.62 245.81 220.85 226.74 220.85 226.74L220.33 225.59Z" fill="#5A5B5D"/>
<path d="M226.84 225.56H220.33L220.85 226.74H226.45L226.84 225.56Z" fill="#464547"/>
<path d="M226.45 226.74H220.86L220.67 235.89C222.62 235.74 224.52 235.8 226.44 235.78V226.74H226.45Z" fill="#9A9DA2"/>
<path d="M220.67 235.88L220.48 245.14L226.43 245.06V235.77C224.52 235.8 222.61 235.73 220.67 235.88Z" fill="#ADB0B5"/>
<g style="mix-blend-mode:multiply">
<path d="M226.84 225.56L228.96 247.74H224.71L220.33 246.32H226.84V225.56Z" fill="#8D9092"/>
</g>
<path d="M242.39 245.07L236.44 245.15L236.29 246.32H242.8V225.56L242.41 226.74L242.39 245.07Z" fill="#5A5B5D"/>
<path d="M236.29 225.59V246.3C236.58 245.81 236.81 226.74 236.81 226.74L236.29 225.59Z" fill="#5A5B5D"/>
<path d="M242.8 225.56H236.29L236.82 226.74H242.41L242.8 225.56Z" fill="#464547"/>
<path d="M242.41 226.74H236.81L236.62 235.89C238.57 235.74 240.47 235.8 242.39 235.78V226.74H242.41Z" fill="#9A9DA2"/>
<path d="M236.63 235.88L236.44 245.14L242.39 245.06V235.77C240.48 235.8 238.57 235.73 236.63 235.88Z" fill="#ADB0B5"/>
<g style="mix-blend-mode:multiply">
<path d="M242.8 225.56L244.92 247.74H240.67L236.29 246.32H242.8V225.56Z" fill="#8D9092"/>
</g>
<path d="M134.86 90.2199L130.93 90.2599L130.83 90.9499H135.13V78.8199L134.88 79.5099L134.86 90.2199Z" fill="#5A5B5D"/>
<path d="M130.83 78.84V90.94C131.03 90.65 131.17 79.51 131.17 79.51L130.83 78.84Z" fill="#5A5B5D"/>
<path d="M135.13 78.8199H130.83L131.17 79.5099H134.88L135.13 78.8199Z" fill="#464547"/>
<path d="M134.88 79.51H131.18L131.06 84.85C132.35 84.76 133.61 84.8 134.88 84.78V79.5V79.51Z" fill="#9A9DA2"/>
<path d="M131.05 84.8499L130.93 90.2599L134.87 90.2099V84.7799C133.6 84.7899 132.34 84.7599 131.06 84.8499H131.05Z" fill="#ADB0B5"/>
<g style="mix-blend-mode:multiply">
<path d="M135.13 78.8199L136.54 91.7799H133.73L130.83 90.9499H135.13V78.8199Z" fill="#8D9092"/>
</g>
<path d="M145.43 90.2199L141.49 90.2599L141.39 90.9499H145.7V78.8199L145.44 79.5099L145.43 90.2199Z" fill="#5A5B5D"/>
<path d="M141.39 78.84V90.94C141.59 90.65 141.73 79.51 141.73 79.51L141.39 78.84Z" fill="#5A5B5D"/>
<path d="M145.7 78.8199H141.39L141.74 79.5099H145.44L145.7 78.8199Z" fill="#464547"/>
<path d="M145.44 79.51H141.73L141.61 84.85C142.9 84.76 144.16 84.8 145.43 84.78V79.5L145.44 79.51Z" fill="#9A9DA2"/>
<path d="M141.61 84.8499L141.49 90.2599L145.43 90.2099V84.7799C144.16 84.7899 142.9 84.7599 141.61 84.8499Z" fill="#ADB0B5"/>
<g style="mix-blend-mode:multiply">
<path d="M145.7 78.8199L147.1 91.7799H144.29L141.39 90.9499H145.7V78.8199Z" fill="#8D9092"/>
</g>
<path d="M156 90.2199L152.06 90.2599L151.96 90.9499H156.26V78.8199L156.01 79.5099L156 90.2199Z" fill="#5A5B5D"/>
<path d="M151.96 78.84V90.94C152.15 90.65 152.3 79.51 152.3 79.51L151.96 78.84Z" fill="#5A5B5D"/>
<path d="M156.26 78.8199H151.96L152.3 79.5099H156.01L156.26 78.8199Z" fill="#464547"/>
<path d="M156.01 79.51H152.31L152.19 84.85C153.48 84.76 154.74 84.8 156.01 84.78V79.5V79.51Z" fill="#9A9DA2"/>
<path d="M152.18 84.8499L152.06 90.2599L156 90.2099V84.7799C154.73 84.7899 153.47 84.7599 152.19 84.8499H152.18Z" fill="#ADB0B5"/>
<g style="mix-blend-mode:multiply">
<path d="M156.26 78.8199L157.67 91.7799H154.86L151.96 90.9499H156.26V78.8199Z" fill="#8D9092"/>
</g>
<path d="M166.56 90.2199L162.62 90.2599L162.52 90.9499H166.83V78.8199L166.57 79.5099L166.56 90.2199Z" fill="#5A5B5D"/>
<path d="M162.52 78.84V90.94C162.72 90.65 162.86 79.51 162.86 79.51L162.52 78.84Z" fill="#5A5B5D"/>
<path d="M166.83 78.8199H162.52L162.87 79.5099H166.57L166.83 78.8199Z" fill="#464547"/>
<path d="M166.57 79.51H162.87L162.75 84.85C164.04 84.76 165.3 84.8 166.57 84.78V79.5V79.51Z" fill="#9A9DA2"/>
<path d="M162.75 84.8499L162.63 90.2599L166.57 90.2099V84.7799C165.3 84.7899 164.04 84.7599 162.75 84.8499Z" fill="#ADB0B5"/>
<g style="mix-blend-mode:multiply">
<path d="M166.83 78.8199L168.23 91.7799H165.42L162.52 90.9499H166.83V78.8199Z" fill="#8D9092"/>
</g>
<path d="M177.13 90.2199L173.19 90.2599L173.09 90.9499H177.39V78.8199L177.14 79.5099L177.13 90.2199Z" fill="#5A5B5D"/>
<path d="M173.09 78.84V90.94C173.28 90.65 173.43 79.51 173.43 79.51L173.09 78.84Z" fill="#5A5B5D"/>
<path d="M177.39 78.8199H173.09L173.43 79.5099H177.14L177.39 78.8199Z" fill="#464547"/>
<path d="M177.14 79.51H173.44L173.32 84.85C174.61 84.76 175.87 84.8 177.14 84.78V79.5V79.51Z" fill="#9A9DA2"/>
<path d="M173.31 84.8499L173.19 90.2599L177.13 90.2099V84.7799C175.86 84.7899 174.6 84.7599 173.31 84.8499Z" fill="#ADB0B5"/>
<g style="mix-blend-mode:multiply">
<path d="M177.39 78.8199L178.8 91.7799H175.99L173.09 90.9499H177.39V78.8199Z" fill="#8D9092"/>
</g>
<path d="M187.11 90.2199L183.18 90.2599L183.08 90.9499H187.38V78.8199L187.13 79.5099L187.11 90.2199Z" fill="#5A5B5D"/>
<path d="M183.08 78.84V90.94C183.27 90.65 183.42 79.51 183.42 79.51L183.08 78.84Z" fill="#5A5B5D"/>
<path d="M187.38 78.8199H183.08L183.42 79.5099H187.13L187.38 78.8199Z" fill="#464547"/>
<path d="M187.13 79.51H183.43L183.31 84.85C184.6 84.76 185.86 84.8 187.13 84.78V79.5V79.51Z" fill="#9A9DA2"/>
<path d="M183.3 84.8499L183.18 90.2599L187.12 90.2099V84.7799C185.85 84.7899 184.59 84.7599 183.31 84.8499H183.3Z" fill="#ADB0B5"/>
<g style="mix-blend-mode:multiply">
<path d="M187.38 78.8199L188.79 91.7799H185.98L183.08 90.9499H187.38V78.8199Z" fill="#8D9092"/>
</g>
<path d="M197.1 90.2199L193.17 90.2599L193.07 90.9499H197.37V78.8199L197.12 79.5099L197.1 90.2199Z" fill="#5A5B5D"/>
<path d="M193.07 78.84V90.94C193.26 90.65 193.41 79.51 193.41 79.51L193.07 78.84Z" fill="#5A5B5D"/>
<path d="M197.37 78.8199H193.07L193.41 79.5099H197.12L197.37 78.8199Z" fill="#464547"/>
<path d="M197.12 79.51H193.42L193.3 84.85C194.59 84.76 195.85 84.8 197.12 84.78V79.5V79.51Z" fill="#9A9DA2"/>
<path d="M193.29 84.8499L193.17 90.2599L197.11 90.2099V84.7799C195.84 84.7899 194.58 84.7599 193.3 84.8499H193.29Z" fill="#ADB0B5"/>
<g style="mix-blend-mode:multiply">
<path d="M197.37 78.8199L198.78 91.7799H195.97L193.07 90.9499H197.37V78.8199Z" fill="#8D9092"/>
</g>
<path d="M251.83 104.72H166.7V123.16H251.83V104.72Z" fill="#353639"/>
<path d="M193.95 149.33H176.97V145.43H193.95V149.33ZM177.6 149.04H193.38V145.63H177.6V149.04Z" fill="#636466"/>
<path d="M193.38 145.63H177.6V149.04H193.38V145.63Z" fill="#B2B5B9"/>
<path d="M190.21 145.99V148.59C190.21 148.71 190.31 148.81 190.44 148.81V145.76C190.31 145.76 190.21 145.86 190.21 145.99Z" fill="#CCC8CD"/>
<path d="M190.44 145.77V148.82C190.57 148.82 190.67 148.72 190.67 148.6V146C190.67 145.88 190.57 145.77 190.44 145.77Z" fill="#A1A4A8"/>
<path d="M190.67 145.99L190.8 146.33V148.62C190.8 148.62 190.9 148.88 190.45 148.81C190.45 148.81 190.66 148.81 190.67 148.62V145.99Z" fill="#8B8E93"/>
<path d="M188.97 145.99V148.59C188.97 148.71 189.07 148.81 189.2 148.81V145.76C189.07 145.76 188.97 145.86 188.97 145.99Z" fill="#CCC8CD"/>
<path d="M189.19 145.77V148.82C189.31 148.82 189.42 148.72 189.42 148.6V146C189.42 145.88 189.32 145.77 189.19 145.77Z" fill="#A1A4A8"/>
<path d="M189.42 145.99L189.55 146.33V148.62C189.55 148.62 189.65 148.88 189.2 148.81C189.2 148.81 189.41 148.81 189.42 148.62V145.99Z" fill="#8B8E93"/>
<path d="M187.72 145.99V148.59C187.72 148.71 187.82 148.81 187.95 148.81V145.76C187.83 145.76 187.72 145.86 187.72 145.99Z" fill="#CCC8CD"/>
<path d="M187.95 145.77V148.82C188.08 148.82 188.18 148.72 188.18 148.6V146C188.18 145.88 188.08 145.77 187.95 145.77Z" fill="#A1A4A8"/>
<path d="M188.17 145.99L188.3 146.33V148.62C188.3 148.62 188.4 148.88 187.95 148.81C187.95 148.81 188.16 148.81 188.17 148.62V145.99Z" fill="#8B8E93"/>
<path d="M186.48 145.99V148.59C186.48 148.71 186.58 148.81 186.71 148.81V145.76C186.59 145.76 186.48 145.86 186.48 145.99Z" fill="#CCC8CD"/>
<path d="M186.7 145.77V148.82C186.83 148.82 186.93 148.72 186.93 148.6V146C186.93 145.88 186.83 145.77 186.7 145.77Z" fill="#A1A4A8"/>
<path d="M186.93 145.99L187.06 146.33V148.62C187.06 148.62 187.16 148.88 186.71 148.81C186.71 148.81 186.92 148.81 186.93 148.62V145.99Z" fill="#8B8E93"/>
<path d="M185.23 145.99V148.59C185.23 148.71 185.33 148.81 185.46 148.81V145.76C185.33 145.76 185.23 145.86 185.23 145.99Z" fill="#CCC8CD"/>
<path d="M185.46 145.77V148.82C185.58 148.82 185.69 148.72 185.69 148.6V146C185.69 145.88 185.59 145.77 185.46 145.77Z" fill="#A1A4A8"/>
<path d="M185.68 145.99L185.81 146.33V148.62C185.81 148.62 185.91 148.88 185.46 148.81C185.46 148.81 185.67 148.81 185.68 148.62V145.99Z" fill="#8B8E93"/>
<path d="M183.98 145.99V148.59C183.98 148.71 184.08 148.81 184.21 148.81V145.76C184.08 145.76 183.98 145.86 183.98 145.99Z" fill="#CCC8CD"/>
<path d="M184.21 145.77V148.82C184.33 148.82 184.44 148.72 184.44 148.6V146C184.44 145.88 184.34 145.77 184.21 145.77Z" fill="#A1A4A8"/>
<path d="M184.44 145.99L184.57 146.33V148.62C184.57 148.62 184.67 148.88 184.22 148.81C184.22 148.81 184.43 148.81 184.44 148.62V145.99Z" fill="#8B8E93"/>
<path d="M182.74 145.99V148.59C182.74 148.71 182.84 148.81 182.97 148.81V145.76C182.85 145.76 182.74 145.86 182.74 145.99Z" fill="#CCC8CD"/>
<path d="M182.96 145.77V148.82C183.09 148.82 183.19 148.72 183.19 148.6V146C183.19 145.88 183.09 145.77 182.96 145.77Z" fill="#A1A4A8"/>
<path d="M183.19 145.99L183.32 146.33V148.62C183.32 148.62 183.42 148.88 182.97 148.81C182.97 148.81 183.18 148.81 183.19 148.62V145.99Z" fill="#8B8E93"/>
<path d="M181.49 145.99V148.59C181.49 148.71 181.59 148.81 181.72 148.81V145.76C181.59 145.76 181.49 145.86 181.49 145.99Z" fill="#CCC8CD"/>
<path d="M181.72 145.77V148.82C181.84 148.82 181.95 148.72 181.95 148.6V146C181.95 145.88 181.85 145.77 181.72 145.77Z" fill="#A1A4A8"/>
<path d="M181.95 145.99L182.08 146.33V148.62C182.08 148.62 182.18 148.88 181.73 148.81C181.73 148.81 181.94 148.81 181.95 148.62V145.99Z" fill="#8B8E93"/>
<path d="M180.25 145.99V148.59C180.25 148.71 180.35 148.81 180.48 148.81V145.76C180.35 145.76 180.25 145.86 180.25 145.99Z" fill="#CCC8CD"/>
<path d="M180.47 145.77V148.82C180.59 148.82 180.7 148.72 180.7 148.6V146C180.7 145.88 180.6 145.77 180.47 145.77Z" fill="#A1A4A8"/>
<path d="M180.7 145.99L180.83 146.33V148.62C180.83 148.62 180.93 148.88 180.48 148.81C180.48 148.81 180.69 148.81 180.7 148.62V145.99Z" fill="#8B8E93"/>
<path d="M335.78 55.6801H81.92V73.8301H335.78V55.6801Z" fill="#DEEAE2"/>
<path d="M167.11 73.82H164.65V61.57L165.88 58.74L167.11 61.57V73.82Z" fill="#939598"/>
<path d="M80.74 54.5V75H336.95V54.5H80.74ZM335.77 73.82H81.92V55.67H335.78V73.82H335.77Z" fill="#909398"/>
<path d="M335.78 63.24H81.92V66.07H335.78V63.24Z" fill="#48484A"/>
<path d="M171.08 55.58H170.63V58.74H171.08V55.58Z" fill="#48484A"/>
<path d="M173.07 55.58H172.62V57.94H173.07V55.58Z" fill="#48484A"/>
<path d="M175.05 55.58H174.6V57.94H175.05V55.58Z" fill="#48484A"/>
<path d="M177.35 55.58H176.89V57.94H177.35V55.58Z" fill="#48484A"/>
<path d="M179.32 55.58H178.87V57.94H179.32V55.58Z" fill="#48484A"/>
<path d="M181.3 55.58H180.85V58.74H181.3V55.58Z" fill="#48484A"/>
<path d="M183.28 55.58H182.83V57.94H183.28V55.58Z" fill="#48484A"/>
<path d="M185.27 55.58H184.82V57.94H185.27V55.58Z" fill="#48484A"/>
<path d="M187.56 55.58H187.11V57.94H187.56V55.58Z" fill="#48484A"/>
<path d="M189.55 55.58H189.09V57.94H189.55V55.58Z" fill="#48484A"/>
<path d="M191.53 55.58H191.07V58.74H191.53V55.58Z" fill="#48484A"/>
<path d="M193.51 55.58H193.06V57.94H193.51V55.58Z" fill="#48484A"/>
<path d="M195.5 55.58H195.04V57.94H195.5V55.58Z" fill="#48484A"/>
<path d="M197.79 55.58H197.33V57.94H197.79V55.58Z" fill="#48484A"/>
<path d="M199.77 55.58H199.32V57.94H199.77V55.58Z" fill="#48484A"/>
<path d="M201.76 55.58H201.3V58.74H201.76V55.58Z" fill="#48484A"/>
<path d="M203.74 55.58H203.28V57.94H203.74V55.58Z" fill="#48484A"/>
<path d="M205.72 55.58H205.26V57.94H205.72V55.58Z" fill="#48484A"/>
<path d="M208 55.58H207.55V57.94H208V55.58Z" fill="#48484A"/>
<path d="M209.99 55.58H209.54V57.94H209.99V55.58Z" fill="#48484A"/>
<path d="M211.98 55.58H211.52V58.74H211.98V55.58Z" fill="#48484A"/>
<path d="M213.95 55.58H213.5V57.94H213.95V55.58Z" fill="#48484A"/>
<path d="M215.94 55.58H215.48V57.94H215.94V55.58Z" fill="#48484A"/>
<path d="M218.23 55.58H217.77V57.94H218.23V55.58Z" fill="#48484A"/>
<path d="M220.22 55.58H219.76V57.94H220.22V55.58Z" fill="#48484A"/>
<path d="M222.2 55.58H221.74V58.74H222.2V55.58Z" fill="#48484A"/>
<path d="M224.17 55.58H223.72V57.94H224.17V55.58Z" fill="#48484A"/>
<path d="M226.15 55.58H225.7V57.94H226.15V55.58Z" fill="#48484A"/>
<path d="M228.46 55.58H228V57.94H228.46V55.58Z" fill="#48484A"/>
<path d="M230.44 55.58H229.98V57.94H230.44V55.58Z" fill="#48484A"/>
<path d="M232.41 55.58H231.96V58.74H232.41V55.58Z" fill="#48484A"/>
<path d="M234.39 55.58H233.94V57.94H234.39V55.58Z" fill="#48484A"/>
<path d="M236.37 55.58H235.92V57.94H236.37V55.58Z" fill="#48484A"/>
<path d="M238.67 55.58H238.22V57.94H238.67V55.58Z" fill="#48484A"/>
<path d="M240.66 55.58H240.2V57.94H240.66V55.58Z" fill="#48484A"/>
<path d="M242.63 55.58H242.18V58.74H242.63V55.58Z" fill="#48484A"/>
<path d="M244.61 55.58H244.16V57.94H244.61V55.58Z" fill="#48484A"/>
<path d="M246.6 55.58H246.14V57.94H246.6V55.58Z" fill="#48484A"/>
<path d="M248.9 55.58H248.44V57.94H248.9V55.58Z" fill="#48484A"/>
<path d="M250.88 55.58H250.42V57.94H250.88V55.58Z" fill="#48484A"/>
<path d="M252.86 55.58H252.4V58.74H252.86V55.58Z" fill="#48484A"/>
<path d="M254.84 55.58H254.38V57.94H254.84V55.58Z" fill="#48484A"/>
<path d="M256.82 55.58H256.36V57.94H256.82V55.58Z" fill="#48484A"/>
<path d="M259.11 55.58H258.66V57.94H259.11V55.58Z" fill="#48484A"/>
<path d="M261.09 55.58H260.64V57.94H261.09V55.58Z" fill="#48484A"/>
<path d="M263.07 55.58H262.62V58.74H263.07V55.58Z" fill="#48484A"/>
<path d="M265.06 55.58H264.6V57.94H265.06V55.58Z" fill="#48484A"/>
<path d="M267.04 55.58H266.58V57.94H267.04V55.58Z" fill="#48484A"/>
<path d="M269.34 55.58H268.88V57.94H269.34V55.58Z" fill="#48484A"/>
<path d="M271.31 55.58H270.86V57.94H271.31V55.58Z" fill="#48484A"/>
<path d="M273.29 55.58H272.84V58.74H273.29V55.58Z" fill="#48484A"/>
<path d="M275.28 55.58H274.82V57.94H275.28V55.58Z" fill="#48484A"/>
<path d="M277.26 55.58H276.8V57.94H277.26V55.58Z" fill="#48484A"/>
<path d="M279.56 55.58H279.1V57.94H279.56V55.58Z" fill="#48484A"/>
<path d="M281.53 55.58H281.08V57.94H281.53V55.58Z" fill="#48484A"/>
<path d="M283.51 55.58H283.06V58.74H283.51V55.58Z" fill="#48484A"/>
<path d="M285.5 55.58H285.04V57.94H285.5V55.58Z" fill="#48484A"/>
<path d="M287.48 55.58H287.02V57.94H287.48V55.58Z" fill="#48484A"/>
<path d="M289.77 55.58H289.32V57.94H289.77V55.58Z" fill="#48484A"/>
<path d="M291.75 55.58H291.3V57.94H291.75V55.58Z" fill="#48484A"/>
<path d="M293.74 55.58H293.28V58.74H293.74V55.58Z" fill="#48484A"/>
<path d="M295.71 55.58H295.26V57.94H295.71V55.58Z" fill="#48484A"/>
<path d="M297.69 55.58H297.24V57.94H297.69V55.58Z" fill="#48484A"/>
<path d="M300 55.58H299.54V57.94H300V55.58Z" fill="#48484A"/>
<path d="M301.97 55.58H301.52V57.94H301.97V55.58Z" fill="#48484A"/>
<path d="M303.95 55.58H303.5V58.74H303.95V55.58Z" fill="#48484A"/>
<path d="M171.75 70.5699H171.3V73.7299H171.75V70.5699Z" fill="#48484A"/>
<path d="M173.73 71.37H173.28V73.73H173.73V71.37Z" fill="#48484A"/>
<path d="M175.71 71.37H175.26V73.73H175.71V71.37Z" fill="#48484A"/>
<path d="M178.02 71.37H177.56V73.73H178.02V71.37Z" fill="#48484A"/>
<path d="M179.99 71.37H179.54V73.73H179.99V71.37Z" fill="#48484A"/>
<path d="M181.97 70.5699H181.52V73.7299H181.97V70.5699Z" fill="#48484A"/>
<path d="M183.95 71.37H183.5V73.73H183.95V71.37Z" fill="#48484A"/>
<path d="M185.94 71.37H185.48V73.73H185.94V71.37Z" fill="#48484A"/>
<path d="M188.23 71.37H187.78V73.73H188.23V71.37Z" fill="#48484A"/>
<path d="M190.21 71.37H189.76V73.73H190.21V71.37Z" fill="#48484A"/>
<path d="M192.19 70.5699H191.74V73.7299H192.19V70.5699Z" fill="#48484A"/>
<path d="M194.17 71.37H193.72V73.73H194.17V71.37Z" fill="#48484A"/>
<path d="M196.15 71.37H195.7V73.73H196.15V71.37Z" fill="#48484A"/>
<path d="M198.45 71.37H198V73.73H198.45V71.37Z" fill="#48484A"/>
<path d="M200.43 71.37H199.98V73.73H200.43V71.37Z" fill="#48484A"/>
<path d="M202.41 70.5699H201.96V73.7299H202.41V70.5699Z" fill="#48484A"/>
<path d="M204.39 71.37H203.94V73.73H204.39V71.37Z" fill="#48484A"/>
<path d="M206.38 71.37H205.92V73.73H206.38V71.37Z" fill="#48484A"/>
<path d="M208.68 71.37H208.22V73.73H208.68V71.37Z" fill="#48484A"/>
<path d="M210.65 71.37H210.2V73.73H210.65V71.37Z" fill="#48484A"/>
<path d="M212.63 70.5699H212.18V73.7299H212.63V70.5699Z" fill="#48484A"/>
<path d="M214.61 71.37H214.16V73.73H214.61V71.37Z" fill="#48484A"/>
<path d="M216.6 71.37H216.14V73.73H216.6V71.37Z" fill="#48484A"/>
<path d="M218.89 71.37H218.44V73.73H218.89V71.37Z" fill="#48484A"/>
<path d="M220.87 71.37H220.42V73.73H220.87V71.37Z" fill="#48484A"/>
<path d="M222.85 70.5699H222.4V73.7299H222.85V70.5699Z" fill="#48484A"/>
<path d="M224.83 71.37H224.38V73.73H224.83V71.37Z" fill="#48484A"/>
<path d="M226.82 71.37H226.36V73.73H226.82V71.37Z" fill="#48484A"/>
<path d="M229.12 71.37H228.66V73.73H229.12V71.37Z" fill="#48484A"/>
<path d="M231.1 71.37H230.64V73.73H231.1V71.37Z" fill="#48484A"/>
<path d="M233.07 70.5699H232.62V73.7299H233.07V70.5699Z" fill="#48484A"/>
<path d="M235.06 71.37H234.6V73.73H235.06V71.37Z" fill="#48484A"/>
<path d="M237.04 71.37H236.58V73.73H237.04V71.37Z" fill="#48484A"/>
<path d="M239.34 71.37H238.88V73.73H239.34V71.37Z" fill="#48484A"/>
<path d="M241.32 71.37H240.86V73.73H241.32V71.37Z" fill="#48484A"/>
<path d="M243.3 70.5699H242.84V73.7299H243.3V70.5699Z" fill="#48484A"/>
<path d="M245.28 71.37H244.82V73.73H245.28V71.37Z" fill="#48484A"/>
<path d="M247.25 71.37H246.8V73.73H247.25V71.37Z" fill="#48484A"/>
<path d="M249.55 71.37H249.1V73.73H249.55V71.37Z" fill="#48484A"/>
<path d="M251.54 71.37H251.08V73.73H251.54V71.37Z" fill="#48484A"/>
<path d="M253.52 70.5699H253.06V73.7299H253.52V70.5699Z" fill="#48484A"/>
<path d="M255.49 71.37H255.04V73.73H255.49V71.37Z" fill="#48484A"/>
<path d="M257.48 71.37H257.02V73.73H257.48V71.37Z" fill="#48484A"/>
<path d="M259.78 71.37H259.32V73.73H259.78V71.37Z" fill="#48484A"/>
<path d="M261.75 71.37H261.3V73.73H261.75V71.37Z" fill="#48484A"/>
<path d="M263.73 70.5699H263.28V73.7299H263.73V70.5699Z" fill="#48484A"/>
<path d="M265.71 71.37H265.26V73.73H265.71V71.37Z" fill="#48484A"/>
<path d="M267.69 71.37H267.24V73.73H267.69V71.37Z" fill="#48484A"/>
<path d="M269.99 71.37H269.54V73.73H269.99V71.37Z" fill="#48484A"/>
<path d="M271.97 71.37H271.52V73.73H271.97V71.37Z" fill="#48484A"/>
<path d="M273.96 70.5699H273.5V73.7299H273.96V70.5699Z" fill="#48484A"/>
<path d="M275.93 71.37H275.48V73.73H275.93V71.37Z" fill="#48484A"/>
<path d="M277.92 71.37H277.47V73.73H277.92V71.37Z" fill="#48484A"/>
<path d="M280.21 71.37H279.76V73.73H280.21V71.37Z" fill="#48484A"/>
<path d="M282.19 71.37H281.74V73.73H282.19V71.37Z" fill="#48484A"/>
<path d="M284.18 70.5699H283.72V73.7299H284.18V70.5699Z" fill="#48484A"/>
<path d="M286.16 71.37H285.7V73.73H286.16V71.37Z" fill="#48484A"/>
<path d="M288.15 71.37H287.69V73.73H288.15V71.37Z" fill="#48484A"/>
<path d="M290.44 71.37H289.98V73.73H290.44V71.37Z" fill="#48484A"/>
<path d="M292.41 71.37H291.96V73.73H292.41V71.37Z" fill="#48484A"/>
<path d="M294.41 70.5699H293.95V73.7299H294.41V70.5699Z" fill="#48484A"/>
<path d="M296.38 71.37H295.92V73.73H296.38V71.37Z" fill="#48484A"/>
<path d="M298.37 71.37H297.91V73.73H298.37V71.37Z" fill="#48484A"/>
<path d="M300.66 71.37H300.2V73.73H300.66V71.37Z" fill="#48484A"/>
<path d="M302.64 71.37H302.18V73.73H302.64V71.37Z" fill="#48484A"/>
<path d="M111.44 57.16H110.99V61.36H111.44V57.16Z" fill="#48484A"/>
<path d="M112.92 57.16H112.46V60.3H112.92V57.16Z" fill="#48484A"/>
<path d="M114.38 57.16H113.93V60.3H114.38V57.16Z" fill="#48484A"/>
<path d="M116.1 57.16H115.64V60.3H116.1V57.16Z" fill="#48484A"/>
<path d="M117.57 57.16H117.11V60.3H117.57V57.16Z" fill="#48484A"/>
<path d="M119.03 57.16H118.58V61.36H119.03V57.16Z" fill="#48484A"/>
<path d="M120.51 57.16H120.06V60.3H120.51V57.16Z" fill="#48484A"/>
<path d="M121.99 57.16H121.53V60.3H121.99V57.16Z" fill="#48484A"/>
<path d="M123.69 57.16H123.24V60.3H123.69V57.16Z" fill="#48484A"/>
<path d="M125.16 57.16H124.71V60.3H125.16V57.16Z" fill="#48484A"/>
<path d="M126.63 57.16H126.18V61.36H126.63V57.16Z" fill="#48484A"/>
<path d="M128.1 57.16H127.65V60.3H128.1V57.16Z" fill="#48484A"/>
<path d="M129.58 57.16H129.13V60.3H129.58V57.16Z" fill="#48484A"/>
<path d="M131.29 57.16H130.83V60.3H131.29V57.16Z" fill="#48484A"/>
<path d="M132.76 57.16H132.31V60.3H132.76V57.16Z" fill="#48484A"/>
<path d="M134.24 57.16H133.78V61.36H134.24V57.16Z" fill="#48484A"/>
<path d="M135.7 57.16H135.25V60.3H135.7V57.16Z" fill="#48484A"/>
<path d="M137.18 57.16H136.72V60.3H137.18V57.16Z" fill="#48484A"/>
<path d="M137.71 67.65H137.26V71.85H137.71V67.65Z" fill="#48484A"/>
<path d="M136.24 68.72H135.79V71.86H136.24V68.72Z" fill="#48484A"/>
<path d="M134.78 68.72H134.32V71.86H134.78V68.72Z" fill="#48484A"/>
<path d="M133.06 68.72H132.61V71.86H133.06V68.72Z" fill="#48484A"/>
<path d="M131.59 68.72H131.14V71.86H131.59V68.72Z" fill="#48484A"/>
<path d="M130.11 67.65H129.66V71.85H130.11V67.65Z" fill="#48484A"/>
<path d="M128.65 68.72H128.19V71.86H128.65V68.72Z" fill="#48484A"/>
<path d="M127.17 68.72H126.72V71.86H127.17V68.72Z" fill="#48484A"/>
<path d="M125.47 68.72H125.01V71.86H125.47V68.72Z" fill="#48484A"/>
<path d="M124 68.72H123.54V71.86H124V68.72Z" fill="#48484A"/>
<path d="M122.52 67.65H122.07V71.85H122.52V67.65Z" fill="#48484A"/>
<path d="M121.04 68.72H120.59V71.86H121.04V68.72Z" fill="#48484A"/>
<path d="M119.58 68.72H119.12V71.86H119.58V68.72Z" fill="#48484A"/>
<path d="M117.87 68.72H117.41V71.86H117.87V68.72Z" fill="#48484A"/>
<path d="M116.39 68.72H115.94V71.86H116.39V68.72Z" fill="#48484A"/>
<path d="M114.93 67.65H114.47V71.85H114.93V67.65Z" fill="#48484A"/>
<path d="M113.46 68.72H113V71.86H113.46V68.72Z" fill="#48484A"/>
<path d="M111.99 68.72H111.53V71.86H111.99V68.72Z" fill="#48484A"/>
<path d="M144.01 72.3701H105.23V56.9301H144.01V72.3701ZM105.69 71.9101H143.56V57.3801H105.69V71.9101Z" fill="#48484A"/>
<path d="M165.65 73.7299H163.2V61.4799L164.43 58.6399L165.65 61.4799V73.7299Z" fill="#BE1E2D"/>
<path d="M165.88 73.9499H162.97L162.99 61.3799L164.43 58.0699L165.88 61.4699V73.9499ZM163.43 73.4999H165.43V61.5199L164.43 59.2099L163.43 61.5199V73.4999Z" fill="#92111D"/>
<path opacity="0.2" d="M335.78 55.6801H81.92V73.8301H335.78V55.6801Z" fill="white"/>
<path d="M102.53 88.8201C100.53 88.8201 98.9 87.1901 98.9 85.1901C98.9 83.1901 100.53 81.5601 102.53 81.5601C104.53 81.5601 106.16 83.1901 106.16 85.1901C106.16 87.1901 104.53 88.8201 102.53 88.8201ZM102.53 82.1801C100.87 82.1801 99.52 83.5301 99.52 85.1901C99.52 86.8501 100.87 88.2001 102.53 88.2001C104.19 88.2001 105.54 86.8501 105.54 85.1901C105.54 83.5301 104.19 82.1801 102.53 82.1801Z" fill="#757679"/>
<path d="M105.53 85.1801C105.53 86.8401 104.19 88.1801 102.53 88.1801C100.87 88.1801 99.53 86.8401 99.53 85.1801C99.53 83.5201 100.87 82.1801 102.53 82.1801C104.19 82.1801 105.53 83.5201 105.53 85.1801Z" fill="#414042"/>
<path d="M104.23 85.1801C104.23 86.1201 103.47 86.8801 102.53 86.8801C101.59 86.8801 100.83 86.1201 100.83 85.1801C100.83 84.2401 101.59 83.4801 102.53 83.4801C103.47 83.4801 104.23 84.2401 104.23 85.1801Z" fill="#231F20"/>
<path d="M91.79 88.8201C89.79 88.8201 88.16 87.1901 88.16 85.1901C88.16 83.1901 89.79 81.5601 91.79 81.5601C93.79 81.5601 95.42 83.1901 95.42 85.1901C95.42 87.1901 93.79 88.8201 91.79 88.8201ZM91.79 82.1801C90.13 82.1801 88.78 83.5301 88.78 85.1901C88.78 86.8501 90.13 88.2001 91.79 88.2001C93.45 88.2001 94.8 86.8501 94.8 85.1901C94.8 83.5301 93.45 82.1801 91.79 82.1801Z" fill="#757679"/>
<path d="M94.79 85.1801C94.79 86.8401 93.45 88.1801 91.79 88.1801C90.13 88.1801 88.79 86.8401 88.79 85.1801C88.79 83.5201 90.13 82.1801 91.79 82.1801C93.45 82.1801 94.79 83.5201 94.79 85.1801Z" fill="#414042"/>
<path d="M93.49 85.1801C93.49 86.1201 92.73 86.8801 91.79 86.8801C90.85 86.8801 90.09 86.1201 90.09 85.1801C90.09 84.2401 90.85 83.4801 91.79 83.4801C92.73 83.4801 93.49 84.2401 93.49 85.1801Z" fill="#231F20"/>
<path d="M113.08 88.8201C111.08 88.8201 109.45 87.1901 109.45 85.1901C109.45 83.1901 111.08 81.5601 113.08 81.5601C115.08 81.5601 116.71 83.1901 116.71 85.1901C116.71 87.1901 115.08 88.8201 113.08 88.8201ZM113.08 82.1801C111.42 82.1801 110.07 83.5301 110.07 85.1901C110.07 86.8501 111.42 88.2001 113.08 88.2001C114.74 88.2001 116.09 86.8501 116.09 85.1901C116.09 83.5301 114.74 82.1801 113.08 82.1801Z" fill="#757679"/>
<path d="M116.08 85.1801C116.08 86.8401 114.74 88.1801 113.08 88.1801C111.42 88.1801 110.08 86.8401 110.08 85.1801C110.08 83.5201 111.42 82.1801 113.08 82.1801C114.74 82.1801 116.08 83.5201 116.08 85.1801Z" fill="#414042"/>
<path d="M114.78 85.1801C114.78 86.1201 114.02 86.8801 113.08 86.8801C112.14 86.8801 111.38 86.1201 111.38 85.1801C111.38 84.2401 112.14 83.4801 113.08 83.4801C114.02 83.4801 114.78 84.2401 114.78 85.1801Z" fill="#231F20"/>
<path d="M49.04 74.34L48.96 67.93L47.84 67.77V74.77H67.58L66.46 74.36L49.04 74.34Z" fill="#5A5B5D"/>
<path d="M67.55 67.77H47.86C48.33 68.09 66.45 68.33 66.45 68.33L67.54 67.77H67.55Z" fill="#5A5B5D"/>
<path d="M67.58 74.77V67.77L66.46 68.33V74.36L67.58 74.77Z" fill="#464547"/>
<path d="M66.46 74.36V68.33L57.76 68.13C57.9 70.23 57.84 72.28 57.87 74.35H66.46V74.36Z" fill="#9A9DA2"/>
<path d="M57.76 68.1301L48.95 67.9301L49.03 74.34H57.86C57.84 72.28 57.89 70.2301 57.75 68.1301H57.76Z" fill="#ADB0B5"/>
<g style="mix-blend-mode:multiply">
<path d="M67.55 67.77L68.21 75.38H59.55L50.15 76.32L47.84 74.77H67.58L67.55 67.77Z" fill="#8D9092"/>
</g>
<path d="M67.55 61.59H46.74V54.64H67.55V61.59ZM47.84 60.49H66.44V55.75H47.84V60.49Z" fill="#797A7D"/>
<path d="M66.45 55.74H47.85V60.48H66.45V55.74Z" fill="#464547"/>
<path d="M225.38 93.47C220.87 93.47 217.21 89.8 217.21 85.3C217.21 80.8 220.88 77.13 225.38 77.13C229.88 77.13 233.55 80.8 233.55 85.3C233.55 89.8 229.88 93.47 225.38 93.47ZM225.38 78.3C221.52 78.3 218.39 81.44 218.39 85.29C218.39 89.14 221.53 92.29 225.38 92.29C229.23 92.29 232.37 89.15 232.37 85.29C232.37 81.43 229.23 78.3 225.38 78.3Z" fill="#909398"/>
<path d="M232.39 85.3C232.39 89.18 229.25 92.32 225.37 92.32C221.49 92.32 218.35 89.18 218.35 85.3C218.35 81.42 221.49 78.28 225.37 78.28C229.25 78.28 232.39 81.42 232.39 85.3Z" fill="#6D6E71"/>
<g style="mix-blend-mode:multiply">
<path d="M228.89 79.8C228.89 79.8 240.23 87.21 232.85 93.47C229.12 96.64 220.39 90.15 220.42 90.23C220.42 90.23 232.45 90.08 228.89 79.8Z" fill="#8D9092"/>
</g>
<path d="M231.51 85.3C231.51 88.69 228.76 91.43 225.38 91.43C222 91.43 219.25 88.69 219.25 85.3C219.25 81.91 222 79.17 225.38 79.17C228.76 79.17 231.51 81.92 231.51 85.3Z" fill="#B6B8BA"/>
<path d="M225.38 91.6601C221.87 91.6601 219.02 88.8101 219.02 85.3001C219.02 81.7901 221.87 78.9401 225.38 78.9401C228.89 78.9401 231.74 81.7901 231.74 85.3001C231.74 88.8101 228.89 91.6601 225.38 91.6601ZM225.38 79.3901C222.12 79.3901 219.48 82.0401 219.48 85.2901C219.48 88.5401 222.13 91.1901 225.38 91.1901C228.63 91.1901 231.28 88.5401 231.28 85.2901C231.28 82.0401 228.63 79.3901 225.38 79.3901Z" fill="#8D9092"/>
<path d="M223.03 85.82C223.03 83.07 225.05 80.8 227.69 80.39C226.95 80.02 226.11 79.8 225.23 79.8C222.19 79.8 219.73 82.26 219.73 85.3C219.73 88.34 222.19 90.8 225.23 90.8C225.51 90.8 225.79 90.77 226.06 90.73C224.26 89.83 223.03 87.97 223.03 85.82Z" fill="#CDCFD0"/>
<path d="M255.46 93.47C250.95 93.47 247.29 89.8 247.29 85.3C247.29 80.8 250.95 77.13 255.46 77.13C259.97 77.13 263.63 80.8 263.63 85.3C263.63 89.8 259.97 93.47 255.46 93.47ZM255.46 78.3C251.6 78.3 248.47 81.44 248.47 85.29C248.47 89.14 251.61 92.29 255.46 92.29C259.31 92.29 262.46 89.15 262.46 85.29C262.46 81.43 259.32 78.3 255.46 78.3Z" fill="#909398"/>
<path d="M262.48 85.3C262.48 89.18 259.34 92.32 255.46 92.32C251.58 92.32 248.44 89.18 248.44 85.3C248.44 81.42 251.58 78.28 255.46 78.28C259.34 78.28 262.48 81.42 262.48 85.3Z" fill="#6D6E71"/>
<g style="mix-blend-mode:multiply">
<path d="M258.98 79.8C258.98 79.8 270.31 87.21 262.94 93.47C259.21 96.64 250.48 90.15 250.51 90.23C250.51 90.23 262.54 90.08 258.98 79.8Z" fill="#8D9092"/>
</g>
<path d="M261.6 85.3C261.6 88.69 258.85 91.43 255.47 91.43C252.09 91.43 249.34 88.69 249.34 85.3C249.34 81.91 252.09 79.17 255.47 79.17C258.85 79.17 261.6 81.92 261.6 85.3Z" fill="#B6B8BA"/>
<path d="M255.46 91.6601C251.95 91.6601 249.1 88.8101 249.1 85.3001C249.1 81.7901 251.95 78.9401 255.46 78.9401C258.97 78.9401 261.82 81.7901 261.82 85.3001C261.82 88.8101 258.97 91.6601 255.46 91.6601ZM255.46 79.3901C252.21 79.3901 249.56 82.0401 249.56 85.2901C249.56 88.5401 252.21 91.1901 255.46 91.1901C258.71 91.1901 261.36 88.5401 261.36 85.2901C261.36 82.0401 258.71 79.3901 255.46 79.3901Z" fill="#8D9092"/>
<path d="M253.12 85.82C253.12 83.07 255.14 80.8 257.79 80.39C257.05 80.02 256.21 79.8 255.32 79.8C252.29 79.8 249.82 82.26 249.82 85.3C249.82 88.34 252.28 90.8 255.32 90.8C255.6 90.8 255.88 90.77 256.15 90.73C254.36 89.83 253.12 87.97 253.12 85.82Z" fill="#CDCFD0"/>
<path d="M285.55 93.47C281.04 93.47 277.38 89.8 277.38 85.3C277.38 80.8 281.05 77.13 285.55 77.13C290.05 77.13 293.72 80.8 293.72 85.3C293.72 89.8 290.06 93.47 285.55 93.47ZM285.55 78.3C281.69 78.3 278.56 81.44 278.56 85.29C278.56 89.14 281.7 92.29 285.55 92.29C289.4 92.29 292.55 89.15 292.55 85.29C292.55 81.43 289.41 78.3 285.55 78.3Z" fill="#909398"/>
<path d="M292.57 85.3C292.57 89.18 289.43 92.32 285.55 92.32C281.67 92.32 278.53 89.18 278.53 85.3C278.53 81.42 281.67 78.28 285.55 78.28C289.43 78.28 292.57 81.42 292.57 85.3Z" fill="#6D6E71"/>
<g style="mix-blend-mode:multiply">
<path d="M289.06 79.8C289.06 79.8 300.39 87.21 293.02 93.47C289.29 96.64 280.56 90.15 280.59 90.23C280.59 90.23 292.62 90.08 289.06 79.8Z" fill="#8D9092"/>
</g>
<path d="M291.69 85.3C291.69 88.69 288.94 91.43 285.56 91.43C282.18 91.43 279.43 88.69 279.43 85.3C279.43 81.91 282.18 79.17 285.56 79.17C288.94 79.17 291.69 81.92 291.69 85.3Z" fill="#B6B8BA"/>
<path d="M285.55 91.6601C282.04 91.6601 279.19 88.8101 279.19 85.3001C279.19 81.7901 282.04 78.9401 285.55 78.9401C289.06 78.9401 291.91 81.7901 291.91 85.3001C291.91 88.8101 289.06 91.6601 285.55 91.6601ZM285.55 79.3901C282.29 79.3901 279.65 82.0401 279.65 85.2901C279.65 88.5401 282.3 91.1901 285.55 91.1901C288.8 91.1901 291.45 88.5401 291.45 85.2901C291.45 82.0401 288.8 79.3901 285.55 79.3901Z" fill="#8D9092"/>
<path d="M283.21 85.82C283.21 83.07 285.23 80.8 287.87 80.39C287.13 80.02 286.29 79.8 285.4 79.8C282.36 79.8 279.9 82.26 279.9 85.3C279.9 88.34 282.36 90.8 285.4 90.8C285.68 90.8 285.96 90.77 286.23 90.73C284.43 89.83 283.2 87.97 283.2 85.82H283.21Z" fill="#CDCFD0"/>
<path d="M315.64 93.47C311.14 93.47 307.47 89.8 307.47 85.3C307.47 80.8 311.14 77.13 315.64 77.13C320.14 77.13 323.81 80.8 323.81 85.3C323.81 89.8 320.14 93.47 315.64 93.47ZM315.64 78.3C311.78 78.3 308.65 81.44 308.65 85.29C308.65 89.14 311.79 92.29 315.64 92.29C319.49 92.29 322.64 89.15 322.64 85.29C322.64 81.43 319.5 78.3 315.64 78.3Z" fill="#909398"/>
<path d="M322.66 85.3C322.66 89.18 319.52 92.32 315.64 92.32C311.76 92.32 308.62 89.18 308.62 85.3C308.62 81.42 311.76 78.28 315.64 78.28C319.52 78.28 322.66 81.42 322.66 85.3Z" fill="#6D6E71"/>
<g style="mix-blend-mode:multiply">
<path d="M319.15 79.8C319.15 79.8 330.48 87.21 323.11 93.47C319.38 96.64 310.65 90.15 310.68 90.23C310.68 90.23 322.71 90.08 319.15 79.8Z" fill="#8D9092"/>
</g>
<path d="M321.77 85.3C321.77 88.69 319.02 91.43 315.64 91.43C312.26 91.43 309.51 88.69 309.51 85.3C309.51 81.91 312.25 79.17 315.64 79.17C319.03 79.17 321.77 81.92 321.77 85.3Z" fill="#B6B8BA"/>
<path d="M315.64 91.6601C312.13 91.6601 309.28 88.8101 309.28 85.3001C309.28 81.7901 312.13 78.9401 315.64 78.9401C319.15 78.9401 322 81.7901 322 85.3001C322 88.8101 319.15 91.6601 315.64 91.6601ZM315.64 79.3901C312.39 79.3901 309.74 82.0401 309.74 85.2901C309.74 88.5401 312.39 91.1901 315.64 91.1901C318.89 91.1901 321.54 88.5401 321.54 85.2901C321.54 82.0401 318.89 79.3901 315.64 79.3901Z" fill="#8D9092"/>
<path d="M313.3 85.82C313.3 83.07 315.32 80.8 317.97 80.39C317.23 80.02 316.39 79.8 315.5 79.8C312.46 79.8 310 82.26 310 85.3C310 88.34 312.46 90.8 315.5 90.8C315.78 90.8 316.06 90.77 316.33 90.73C314.53 89.83 313.3 87.97 313.3 85.82Z" fill="#CDCFD0"/>
<path d="M345.73 93.47C341.22 93.47 337.56 89.8 337.56 85.3C337.56 80.8 341.23 77.13 345.73 77.13C350.23 77.13 353.9 80.8 353.9 85.3C353.9 89.8 350.24 93.47 345.73 93.47ZM345.73 78.3C341.87 78.3 338.74 81.44 338.74 85.29C338.74 89.14 341.88 92.29 345.73 92.29C349.58 92.29 352.72 89.15 352.72 85.29C352.72 81.43 349.58 78.3 345.73 78.3Z" fill="#909398"/>
<path d="M352.75 85.3C352.75 89.18 349.61 92.32 345.73 92.32C341.85 92.32 338.71 89.18 338.71 85.3C338.71 81.42 341.85 78.28 345.73 78.28C349.61 78.28 352.75 81.42 352.75 85.3Z" fill="#6D6E71"/>
<g style="mix-blend-mode:multiply">
<path d="M349.24 79.8C349.24 79.8 360.58 87.21 353.2 93.47C349.47 96.64 340.74 90.15 340.77 90.23C340.77 90.23 352.8 90.08 349.24 79.8Z" fill="#8D9092"/>
</g>
<path d="M351.86 85.3C351.86 88.69 349.11 91.43 345.73 91.43C342.35 91.43 339.6 88.69 339.6 85.3C339.6 81.91 342.35 79.17 345.73 79.17C349.11 79.17 351.86 81.92 351.86 85.3Z" fill="#B6B8BA"/>
<path d="M345.73 91.6601C342.22 91.6601 339.37 88.8101 339.37 85.3001C339.37 81.7901 342.22 78.9401 345.73 78.9401C349.24 78.9401 352.09 81.7901 352.09 85.3001C352.09 88.8101 349.24 91.6601 345.73 91.6601ZM345.73 79.3901C342.47 79.3901 339.83 82.0401 339.83 85.2901C339.83 88.5401 342.48 91.1901 345.73 91.1901C348.98 91.1901 351.63 88.5401 351.63 85.2901C351.63 82.0401 348.98 79.3901 345.73 79.3901Z" fill="#8D9092"/>
<path d="M343.39 85.82C343.39 83.07 345.42 80.8 348.06 80.39C347.32 80.02 346.48 79.8 345.59 79.8C342.55 79.8 340.09 82.26 340.09 85.3C340.09 88.34 342.55 90.8 345.59 90.8C345.88 90.8 346.15 90.77 346.42 90.73C344.62 89.83 343.39 87.97 343.39 85.82Z" fill="#CDCFD0"/>
<path d="M88.78 104.72H53.74V123.16H88.78V104.72Z" fill="#4D4D4F"/>
<path d="M89.24 123.62H53.29V104.27H89.24V123.62ZM54.2 122.71H88.33V105.18H54.2V122.71Z" fill="#7D7E81"/>
<path d="M148.58 104.72H113.54V123.16H148.58V104.72Z" fill="#4D4D4F"/>
<path d="M149.04 123.62H113.08V104.27H149.04V123.62ZM113.99 122.71H148.13V105.18H113.99V122.71Z" fill="#7D7E81"/>
<path d="M305.59 104.72H270.55V123.16H305.59V104.72Z" fill="#4D4D4F"/>
<path d="M306.05 123.62H270.1V104.27H306.05V123.62ZM271.01 122.71H305.15V105.18H271.01V122.71Z" fill="#7D7E81"/>
<path d="M365.39 104.72H330.34V123.16H365.39V104.72Z" fill="#4D4D4F"/>
<path d="M365.84 123.62H329.89V104.27H365.84V123.62ZM330.79 122.71H364.93V105.18H330.79V122.71Z" fill="#7D7E81"/>
<path d="M183.31 115.23H181.32V117.06H183.31V115.23Z" fill="#82A941"/>
<path d="M183.31 117.82H181.32V119.65H183.31V117.82Z" fill="#82A941"/>
<path d="M183.31 120.42H181.32V122.25H183.31V120.42Z" fill="#82A941"/>
<path d="M186.49 110.04H184.5V111.87H186.49V110.04Z" fill="#88A53F"/>
<path d="M186.49 112.63H184.5V114.46H186.49V112.63Z" fill="#88A53F"/>
<path d="M186.49 115.23H184.5V117.06H186.49V115.23Z" fill="#88A53F"/>
<path d="M186.49 117.82H184.5V119.65H186.49V117.82Z" fill="#88A53F"/>
<path d="M186.49 120.42H184.5V122.25H186.49V120.42Z" fill="#88A53F"/>
<path d="M189.67 112.63H187.68V114.46H189.67V112.63Z" fill="#8F9E3D"/>
<path d="M189.67 115.23H187.68V117.06H189.67V115.23Z" fill="#8F9E3D"/>
<path d="M189.67 117.82H187.68V119.65H189.67V117.82Z" fill="#8F9E3D"/>
<path d="M189.67 120.42H187.68V122.25H189.67V120.42Z" fill="#8F9E3D"/>
<path d="M192.86 120.42H190.87V122.25H192.86V120.42Z" fill="#96983C"/>
<path d="M196.04 117.82H194.05V119.65H196.04V117.82Z" fill="#9D903A"/>
<path d="M196.04 120.42H194.05V122.25H196.04V120.42Z" fill="#9D903A"/>
<path d="M199.23 120.42H197.24V122.25H199.23V120.42Z" fill="#A28B39"/>
<path d="M202.41 120.42H200.42V122.25H202.41V120.42Z" fill="#A78637"/>
<path d="M205.6 115.23H203.61V117.06H205.6V115.23Z" fill="#A78337"/>
<path d="M205.6 117.82H203.61V119.65H205.6V117.82Z" fill="#A78337"/>
<path d="M205.6 120.42H203.61V122.25H205.6V120.42Z" fill="#A78337"/>
<path d="M208.78 117.82H206.79V119.65H208.78V117.82Z" fill="#AE7C35"/>
<path d="M208.78 120.42H206.79V122.25H208.78V120.42Z" fill="#AE7C35"/>
<path d="M211.97 112.63H209.98V114.46H211.97V112.63Z" fill="#B47333"/>
<path d="M211.97 115.23H209.98V117.06H211.97V115.23Z" fill="#B47333"/>
<path d="M211.97 117.82H209.98V119.65H211.97V117.82Z" fill="#B47333"/>
<path d="M211.97 120.42H209.98V122.25H211.97V120.42Z" fill="#B47333"/>
<path d="M215.15 115.23H213.16V117.06H215.15V115.23Z" fill="#B57133"/>
<path d="M215.15 117.82H213.16V119.65H215.15V117.82Z" fill="#B57133"/>
<path d="M215.15 120.42H213.16V122.25H215.15V120.42Z" fill="#B57133"/>
<path d="M218.33 112.63H216.34V114.46H218.33V112.63Z" fill="#BA6931"/>
<path d="M218.33 115.23H216.34V117.06H218.33V115.23Z" fill="#BA6931"/>
<path d="M218.33 117.82H216.34V119.65H218.33V117.82Z" fill="#BA6931"/>
<path d="M218.33 120.42H216.34V122.25H218.33V120.42Z" fill="#BA6931"/>
<path d="M221.52 110.04H219.53V111.87H221.52V110.04Z" fill="#C25A2F"/>
<path d="M221.52 112.63H219.53V114.46H221.52V112.63Z" fill="#C25A2F"/>
<path d="M221.52 115.23H219.53V117.06H221.52V115.23Z" fill="#C25A2F"/>
<path d="M221.52 117.82H219.53V119.65H221.52V117.82Z" fill="#C25A2F"/>
<path d="M221.52 120.42H219.53V122.25H221.52V120.42Z" fill="#C25A2F"/>
<path d="M224.71 112.63H222.71V114.46H224.71V112.63Z" fill="#C5512D"/>
<path d="M224.71 115.23H222.71V117.06H224.71V115.23Z" fill="#C5512D"/>
<path d="M224.71 117.82H222.71V119.65H224.71V117.82Z" fill="#C5512D"/>
<path d="M224.71 120.42H222.71V122.25H224.71V120.42Z" fill="#C5512D"/>
<path d="M227.89 117.82H225.9V119.65H227.89V117.82Z" fill="#CA462C"/>
<path d="M227.89 120.42H225.9V122.25H227.89V120.42Z" fill="#CA462C"/>
<path d="M231.07 120.42H229.08V122.25H231.07V120.42Z" fill="#CF372B"/>
<path d="M234.26 120.42H232.27V122.25H234.26V120.42Z" fill="#D3232A"/>
<path d="M237.44 115.23H235.45V117.06H237.44V115.23Z" fill="#D72229"/>
<path d="M237.44 117.82H235.45V119.65H237.44V117.82Z" fill="#D72229"/>
<path d="M237.44 120.42H235.45V122.25H237.44V120.42Z" fill="#D72229"/>
<path d="M240.63 112.63H238.64V114.46H240.63V112.63Z" fill="#DB2028"/>
<path d="M240.63 115.23H238.64V117.06H240.63V115.23Z" fill="#DB2028"/>
<path d="M240.63 117.82H238.64V119.65H240.63V117.82Z" fill="#DB2028"/>
<path d="M240.63 120.42H238.64V122.25H240.63V120.42Z" fill="#DB2028"/>
<path d="M243.81 117.82H241.82V119.65H243.81V117.82Z" fill="#E02027"/>
<path d="M243.81 120.42H241.82V122.25H243.81V120.42Z" fill="#E02027"/>
<path d="M247 115.23H245V117.06H247V115.23Z" fill="#E41F26"/>
<path d="M247 117.82H245V119.65H247V117.82Z" fill="#E41F26"/>
<path d="M247 120.42H245V122.25H247V120.42Z" fill="#E41F26"/>
<path d="M250.18 112.63H248.19V114.46H250.18V112.63Z" fill="#E91E25"/>
<path d="M250.18 115.23H248.19V117.06H250.18V115.23Z" fill="#E91E25"/>
<path d="M250.18 117.82H248.19V119.65H250.18V117.82Z" fill="#E91E25"/>
<path d="M250.18 120.42H248.19V122.25H250.18V120.42Z" fill="#E91E25"/>
<path d="M180.08 117.82H178.09V119.65H180.08V117.82Z" fill="#80AC41"/>
<path d="M180.08 120.42H178.09V122.25H180.08V120.42Z" fill="#80AC41"/>
<path d="M176.86 120.42H174.87V122.25H176.86V120.42Z" fill="#7AAF42"/>
<path d="M171.65 117.82H173.64V119.65H171.65" fill="#6EB644"/>
<path d="M173.64 120.42H171.65V122.25H173.64V120.42Z" fill="#6EB644"/>
<path d="M170.41 115.23H168.42V117.06H170.41V115.23Z" fill="#67BA45"/>
<path d="M170.41 117.82H168.42V119.65H170.41V117.82Z" fill="#67BA45"/>
<path d="M170.41 120.42H168.42V122.25H170.41V120.42Z" fill="#67BA45"/>
</g>
<defs>
<filter id="filter0_d_29_3" x="0" y="0" width="380.26" height="286.63" filterUnits="userSpaceOnUse" color-interpolation-filters="sRGB">
<feFlood flood-opacity="0" result="BackgroundImageFix"/>
<feColorMatrix in="SourceAlpha" type="matrix" values="0 0 0 0 0 0 0 0 0 0 0 0 0 0 0 0 0 0 127 0" result="hardAlpha"/>
<feOffset dx="-17" dy="15"/>
<feGaussianBlur stdDeviation="4.5"/>
<feComposite in2="hardAlpha" operator="out"/>
<feColorMatrix type="matrix" values="0 0 0 0 0 0 0 0 0 0 0 0 0 0 0 0 0 0 0.5 0"/>
<feBlend mode="normal" in2="BackgroundImageFix" result="effect1_dropShadow_29_3"/>
<feBlend mode="normal" in="SourceGraphic" in2="effect1_dropShadow_29_3" result="shape"/>
</filter>
</defs>
</svg>
