<svg width="286" height="190" viewBox="0 0 286 190" fill="none" xmlns="http://www.w3.org/2000/svg">
<g filter="url(#filter0_d_18_86)">
<path d="M90.5 75.13C90.5 84.28 83.09 91.69 73.94 91.69C64.79 91.69 57.38 84.28 57.38 75.13C57.38 65.98 64.79 58.57 73.94 58.57C83.09 58.57 90.5 65.98 90.5 75.13Z" fill="#B09F86"/>
<path d="M200.41 75.13C200.41 84.28 193 91.69 183.85 91.69C174.7 91.69 167.29 84.28 167.29 75.13C167.29 65.98 174.7 58.57 183.85 58.57C193 58.57 200.41 65.98 200.41 75.13Z" fill="#B09F86"/>
<path d="M250.44 0.539978H8.62998C4.15998 0.539978 0.539978 4.18998 0.539978 8.67998V156.95C0.539978 161.45 4.15998 165.09 8.62998 165.09H250.44C254.91 165.09 258.53 161.44 258.53 156.95V8.67998C258.53 4.18998 254.91 0.539978 250.44 0.539978ZM26.78 153.36C25.52 153.36 24.49 152.34 24.49 151.07C24.49 149.8 25.51 148.78 26.78 148.78C28.05 148.78 29.07 149.81 29.07 151.07C29.07 152.33 28.04 153.36 26.78 153.36ZM65.56 160.35C63.87 160.35 62.5 158.98 62.5 157.29C62.5 155.6 63.87 154.23 65.56 154.23C67.25 154.23 68.62 155.6 68.62 157.29C68.62 158.98 67.25 160.35 65.56 160.35ZM73.96 91.41C64.97 91.41 57.68 84.12 57.68 75.13C57.68 66.14 64.97 58.85 73.96 58.85C82.95 58.85 90.24 66.14 90.24 75.13C90.24 84.12 82.95 91.41 73.96 91.41ZM94 155.15C94 156.07 93.25 156.82 92.34 156.82H89.39C88.47 156.82 87.73 156.07 87.73 155.15V152.2C87.73 151.28 88.48 150.54 89.39 150.54H92.34C93.25 150.54 94 151.28 94 152.2V155.15ZM95.11 57.54H162.3V92.73H95.11V57.54ZM166.25 156.04C166.25 156.96 165.5 157.7 164.59 157.7H161.64C160.72 157.7 159.97 156.96 159.97 156.04V153.09C159.97 152.17 160.72 151.42 161.64 151.42H164.59C165.51 151.42 166.25 152.17 166.25 153.09V156.04ZM188.41 161.26C186.71 161.26 185.33 159.88 185.33 158.18C185.33 156.48 186.71 155.1 188.41 155.1C190.11 155.1 191.49 156.48 191.49 158.18C191.49 159.88 190.11 161.26 188.41 161.26ZM183.85 91.41C174.86 91.41 167.57 84.12 167.57 75.13C167.57 66.14 174.86 58.85 183.85 58.85C192.84 58.85 200.13 66.14 200.13 75.13C200.13 84.12 192.84 91.41 183.85 91.41ZM233.53 153.36C232.26 153.36 231.24 152.34 231.24 151.07C231.24 149.8 232.26 148.78 233.53 148.78C234.8 148.78 235.82 149.81 235.82 151.07C235.82 152.33 234.79 153.36 233.53 153.36Z" fill="#523118"/>
<path d="M250.44 165.64H8.63C3.87 165.64 0 161.75 0 156.96V8.68C0 3.9 3.87 0 8.63 0H250.44C255.2 0 259.07 3.9 259.07 8.68V156.95C259.07 161.74 255.2 165.63 250.44 165.63V165.64ZM8.63 1.09C4.47 1.09 1.08 4.5 1.08 8.68V156.95C1.08 161.14 4.47 164.55 8.63 164.55H250.44C254.6 164.55 257.99 161.14 257.99 156.95V8.68C257.99 4.49 254.6 1.09 250.44 1.09H8.63ZM162.83 93.27H94.56V56.99H162.83V93.27ZM95.64 92.19H161.75V58.08H95.64V92.19ZM183.84 91.95C174.57 91.95 167.02 84.41 167.02 75.13C167.02 65.85 174.56 58.31 183.84 58.31C193.12 58.31 200.66 65.85 200.66 75.13C200.66 84.41 193.12 91.95 183.84 91.95ZM183.84 59.4C175.16 59.4 168.11 66.46 168.11 75.13C168.11 83.8 175.17 90.87 183.84 90.87C192.51 90.87 199.58 83.81 199.58 75.13C199.58 66.45 192.52 59.4 183.84 59.4ZM73.94 91.95C64.66 91.95 57.12 84.41 57.12 75.13C57.12 65.85 64.66 58.31 73.94 58.31C83.22 58.31 90.76 65.85 90.76 75.13C90.76 84.41 83.22 91.95 73.94 91.95ZM73.94 59.4C65.26 59.4 58.2 66.46 58.2 75.13C58.2 83.8 65.26 90.87 73.94 90.87C82.62 90.87 89.67 83.81 89.67 75.13C89.67 66.45 82.61 59.4 73.94 59.4Z" fill="#301500"/>
<path opacity="0.7" d="M151.76 164.56H102.81V149.97H151.76V164.56ZM103.9 164.56H150.68V153.33H103.9V164.56Z" fill="#806448"/>
<path d="M73.95 9.34003C37.67 9.34003 8.15002 38.86 8.15002 75.13C8.15002 111.4 37.67 140.92 73.94 140.92C110.21 140.92 139.73 111.4 139.73 75.13C139.73 38.86 110.22 9.34003 73.95 9.34003ZM73.95 91.4C64.96 91.4 57.67 84.11 57.67 75.12C57.67 66.13 64.96 58.84 73.95 58.84C82.94 58.84 90.23 66.13 90.23 75.12C90.23 84.11 82.94 91.4 73.95 91.4Z" fill="#27171A"/>
<path d="M183.85 44.62C167.03 44.62 153.34 58.31 153.34 75.14C153.34 91.97 167.03 105.65 183.85 105.65C200.67 105.65 214.36 91.96 214.36 75.14C214.36 58.32 200.68 44.62 183.85 44.62ZM183.85 91.41C174.86 91.41 167.57 84.12 167.57 75.13C167.57 66.14 174.86 58.85 183.85 58.85C192.84 58.85 200.13 66.14 200.13 75.13C200.13 84.12 192.84 91.41 183.85 91.41Z" fill="#27171A"/>
<path d="M73.95 91.95C64.68 91.95 57.13 84.41 57.13 75.13C57.13 65.85 64.67 58.31 73.95 58.31C83.23 58.31 90.77 65.85 90.77 75.13C90.77 84.41 83.23 91.95 73.95 91.95ZM73.95 59.4C65.27 59.4 58.22 66.46 58.22 75.13C58.22 83.8 65.28 90.87 73.95 90.87C82.62 90.87 89.69 83.81 89.69 75.13C89.69 66.45 82.63 59.4 73.95 59.4Z" fill="white"/>
<path d="M73.95 60.68C65.98 60.68 59.5 67.16 59.5 75.13C59.5 83.1 65.99 89.59 73.95 89.59C81.91 89.59 88.41 83.1 88.41 75.13C88.41 67.16 81.92 60.68 73.95 60.68ZM85.71 80.84L82.57 78.87L79.97 83.02L82.77 84.78C80.61 86.76 77.8 88.01 74.69 88.19L74.9 84.42L70.01 84.15L69.82 87.55C66.91 86.58 64.46 84.61 62.86 82.06L66.33 80.38L64.19 75.97L61.08 77.48C60.94 76.71 60.86 75.93 60.86 75.13C60.86 72.8 61.48 70.61 62.56 68.7L65.71 70.93L68.54 66.93L65.74 64.95C67.68 63.38 70.06 62.36 72.67 62.1V65.9H77.57V62.56C80.49 63.4 83 65.23 84.7 67.67L81.45 69.47L83.82 73.76L86.69 72.17C86.91 73.13 87.04 74.11 87.04 75.13C87.04 77.18 86.55 79.11 85.71 80.84Z" fill="#D7CEC2"/>
<path d="M183.85 91.95C174.58 91.95 167.03 84.41 167.03 75.13C167.03 65.85 174.57 58.31 183.85 58.31C193.13 58.31 200.67 65.85 200.67 75.13C200.67 84.41 193.13 91.95 183.85 91.95ZM183.85 59.4C175.17 59.4 168.12 66.46 168.12 75.13C168.12 83.8 175.18 90.87 183.85 90.87C192.52 90.87 199.59 83.81 199.59 75.13C199.59 66.45 192.53 59.4 183.85 59.4Z" fill="white"/>
<path d="M183.85 60.68C175.88 60.68 169.39 67.16 169.39 75.13C169.39 83.1 175.87 89.59 183.85 89.59C191.83 89.59 198.3 83.1 198.3 75.13C198.3 67.16 191.82 60.68 183.85 60.68ZM195.61 80.84L192.47 78.87L189.87 83.02L192.67 84.78C190.51 86.76 187.7 88.01 184.59 88.19L184.8 84.42L179.91 84.15L179.72 87.55C176.81 86.58 174.36 84.61 172.76 82.06L176.22 80.38L174.09 75.97L170.97 77.48C170.83 76.71 170.75 75.93 170.75 75.13C170.75 72.8 171.37 70.61 172.45 68.7L175.61 70.93L178.44 66.93L175.64 64.95C177.57 63.38 179.96 62.36 182.56 62.1V65.9H187.46V62.56C190.38 63.4 192.88 65.23 194.58 67.67L191.33 69.47L193.7 73.76L196.57 72.17C196.79 73.13 196.92 74.11 196.92 75.13C196.92 77.18 196.43 79.11 195.59 80.84H195.61Z" fill="#D7CEC2"/>
<path d="M187.13 95.18H71.38C65.67 95.18 53.88 90.4 53.88 75.64C54.37 60.99 66.43 55.1 71.38 55.1H187.13C190.7 55.1 203.49 59.97 204.08 75.43C204.08 90.26 190.72 95.18 187.13 95.18ZM71.38 57.26C67.05 57.26 56.48 62.56 56.05 75.67C56.05 88.76 66.38 93.01 71.38 93.01H187.13C190.26 93.01 201.91 88.63 201.91 75.47C201.4 61.83 190.11 57.26 187.13 57.26H71.38Z" fill="white"/>
<path opacity="0.7" d="M183.85 148.41C150.66 148.41 132.07 128.7 129.52 125.82C126.77 128.65 106.39 148.41 73.95 148.41C23.32 148.41 5.61998 104.83 5.44998 104.39L5.41998 104.24V37.01L5.61998 36.89L56.04 6.28998H201.91L202.01 6.33998L252.83 34.72V104.35L252.78 104.44C241.71 124.5 220.77 148.41 183.85 148.41ZM129.56 124.58L129.86 124.95C130.04 125.18 148.63 147.59 183.85 147.59C219.07 147.59 241.04 123.98 252.02 104.13V35.19L201.7 7.09998H56.27L6.22998 37.47V104.17C7.03998 106.14 24.82 147.6 73.94 147.6C108.33 147.6 129.02 125.17 129.23 124.94L129.55 124.59L129.56 124.58Z" fill="#301500"/>
<path opacity="0.7" d="M33.92 11.11H19.63V2.83002H33.92V11.12V11.11ZM20.45 10.3H33.11V3.64002H20.45V10.3Z" fill="#806448"/>
<path opacity="0.7" d="M240.25 10.84H225.96V2.56H240.25V10.85V10.84ZM226.78 10.02H239.44V3.37H226.78V10.03V10.02Z" fill="#806448"/>
<path opacity="0.7" d="M233.52 158.75C229.28 158.75 225.83 155.3 225.83 151.07C225.83 146.84 229.28 143.38 233.52 143.38C237.76 143.38 241.2 146.83 241.2 151.07C241.2 155.31 237.76 158.75 233.52 158.75ZM233.52 144.2C229.73 144.2 226.65 147.28 226.65 151.07C226.65 154.86 229.73 157.94 233.52 157.94C237.31 157.94 240.39 154.86 240.39 151.07C240.39 147.28 237.31 144.2 233.52 144.2Z" fill="#301500"/>
<path opacity="0.7" d="M233.52 154.37C231.7 154.37 230.22 152.89 230.22 151.07C230.22 149.25 231.7 147.77 233.52 147.77C235.34 147.77 236.82 149.25 236.82 151.07C236.82 152.89 235.34 154.37 233.52 154.37ZM233.52 148.77C232.25 148.77 231.21 149.8 231.21 151.07C231.21 152.34 232.25 153.38 233.52 153.38C234.79 153.38 235.82 152.34 235.82 151.07C235.82 149.8 234.79 148.77 233.52 148.77Z" fill="#301500"/>
<path opacity="0.7" d="M26.78 158.75C22.54 158.75 19.1 155.3 19.1 151.07C19.1 146.84 22.54 143.38 26.78 143.38C31.02 143.38 34.46 146.83 34.46 151.07C34.46 155.31 31.01 158.75 26.78 158.75ZM26.78 144.2C22.99 144.2 19.91 147.28 19.91 151.07C19.91 154.86 22.99 157.94 26.78 157.94C30.57 157.94 33.65 154.86 33.65 151.07C33.65 147.28 30.57 144.2 26.78 144.2Z" fill="#301500"/>
<path opacity="0.7" d="M26.78 154.38C24.96 154.38 23.47 152.89 23.47 151.07C23.47 149.25 24.95 147.76 26.78 147.76C28.61 147.76 30.09 149.25 30.09 151.07C30.09 152.89 28.61 154.38 26.78 154.38ZM26.78 148.76C25.5 148.76 24.47 149.79 24.47 151.07C24.47 152.35 25.5 153.38 26.78 153.38C28.06 153.38 29.09 152.34 29.09 151.07C29.09 149.8 28.06 148.76 26.78 148.76Z" fill="#301500"/>
<path d="M253.34 157.25C253.34 159.19 251.76 160.77 249.82 160.77C247.88 160.77 246.3 159.2 246.3 157.25C246.3 155.3 247.87 153.73 249.82 153.73C251.77 153.73 253.34 155.3 253.34 157.25Z" fill="#301500"/>
<path d="M249.82 161.04C247.73 161.04 246.03 159.34 246.03 157.25C246.03 155.16 247.73 153.46 249.82 153.46C251.91 153.46 253.61 155.16 253.61 157.25C253.61 159.34 251.91 161.04 249.82 161.04ZM249.82 154C248.03 154 246.57 155.46 246.57 157.25C246.57 159.04 248.03 160.5 249.82 160.5C251.61 160.5 253.07 159.04 253.07 157.25C253.07 155.46 251.61 154 249.82 154Z" fill="#806448"/>
<path d="M251.89 156.98H250.18V155.3H249.64V156.98H247.89V157.52H249.64V159.2H250.18V157.52H251.89V156.98Z" fill="#806448"/>
<path d="M133.11 138.13C133.11 140.08 131.54 141.65 129.59 141.65C127.64 141.65 126.07 140.08 126.07 138.13C126.07 136.18 127.65 134.61 129.59 134.61C131.53 134.61 133.11 136.18 133.11 138.13Z" fill="#301500"/>
<path d="M129.59 141.92C127.5 141.92 125.8 140.22 125.8 138.13C125.8 136.04 127.5 134.34 129.59 134.34C131.68 134.34 133.38 136.04 133.38 138.13C133.38 140.22 131.68 141.92 129.59 141.92ZM129.59 134.88C127.8 134.88 126.34 136.33 126.34 138.13C126.34 139.93 127.8 141.38 129.59 141.38C131.38 141.38 132.84 139.93 132.84 138.13C132.84 136.33 131.38 134.88 129.59 134.88Z" fill="#806448"/>
<path d="M131.66 137.86H129.96V136.18H129.41V137.86H127.66V138.4H129.41V140.08H129.96V138.4H131.66V137.86Z" fill="#806448"/>
<path d="M12.76 157.25C12.76 159.19 11.19 160.77 9.23997 160.77C7.28997 160.77 5.71997 159.2 5.71997 157.25C5.71997 155.3 7.29997 153.73 9.23997 153.73C11.18 153.73 12.76 155.3 12.76 157.25Z" fill="#301500"/>
<path d="M9.23995 161.04C7.14995 161.04 5.44995 159.34 5.44995 157.25C5.44995 155.16 7.14995 153.46 9.23995 153.46C11.33 153.46 13.03 155.16 13.03 157.25C13.03 159.34 11.33 161.04 9.23995 161.04ZM9.23995 154C7.44995 154 5.98995 155.46 5.98995 157.25C5.98995 159.04 7.44995 160.5 9.23995 160.5C11.03 160.5 12.49 159.04 12.49 157.25C12.49 155.46 11.04 154 9.23995 154Z" fill="#806448"/>
<path d="M11.3199 156.98H9.60994V155.3H9.05994V156.98H7.30994V157.52H9.05994V159.2H9.60994V157.52H11.3199V156.98Z" fill="#806448"/>
<path d="M252.74 6.97001C252.74 8.91001 251.17 10.49 249.22 10.49C247.27 10.49 245.69 8.91001 245.69 6.97001C245.69 5.03001 247.27 3.45001 249.22 3.45001C251.17 3.45001 252.74 5.03001 252.74 6.97001Z" fill="#301500"/>
<path d="M249.22 10.76C247.13 10.76 245.43 9.05999 245.43 6.96999C245.43 4.87999 247.13 3.17999 249.22 3.17999C251.31 3.17999 253.01 4.87999 253.01 6.96999C253.01 9.05999 251.31 10.76 249.22 10.76ZM249.22 3.71999C247.43 3.71999 245.97 5.17999 245.97 6.96999C245.97 8.75999 247.43 10.22 249.22 10.22C251.01 10.22 252.47 8.75999 252.47 6.96999C252.47 5.17999 251.01 3.71999 249.22 3.71999Z" fill="#806448"/>
<path d="M251.29 6.70002H249.59V5.02002H249.04V6.70002H247.29V7.24002H249.04V8.92002H249.59V7.24002H251.29V6.70002Z" fill="#806448"/>
<path d="M12.16 6.97001C12.16 8.91001 10.58 10.49 8.64 10.49C6.7 10.49 5.12 8.91001 5.12 6.97001C5.12 5.03001 6.7 3.45001 8.64 3.45001C10.58 3.45001 12.16 5.03001 12.16 6.97001Z" fill="#301500"/>
<path d="M8.63998 10.76C6.54998 10.76 4.84998 9.05999 4.84998 6.96999C4.84998 4.87999 6.54998 3.17999 8.63998 3.17999C10.73 3.17999 12.43 4.87999 12.43 6.96999C12.43 9.05999 10.73 10.76 8.63998 10.76ZM8.63998 3.71999C6.84998 3.71999 5.38998 5.17999 5.38998 6.96999C5.38998 8.75999 6.84998 10.22 8.63998 10.22C10.43 10.22 11.89 8.75999 11.89 6.96999C11.89 5.17999 10.43 3.71999 8.63998 3.71999Z" fill="#806448"/>
<path d="M10.72 6.70002H9.00997V5.02002H8.46997V6.70002H6.71997V7.24002H8.46997V8.92002H9.00997V7.24002H10.72V6.70002Z" fill="#806448"/>
<path d="M220.54 164.56H38.53L47.16 123.67H211.45L220.54 164.56ZM39.36 164.56H219.7L209.58 127.29H48.24L39.37 164.56H39.36Z" fill="#806448"/>
<path d="M245 25.73L234.4 14.1H26.2L12.87 26.76V39.04H245V25.73Z" fill="#D7C6AF"/>
<path d="M245 110.18H12.87V120.77H245V110.18Z" fill="#D7C6AF"/>
<path d="M12.87 39.04V110.18H245V39.04H12.87ZM73.95 91.41C64.96 91.41 57.67 84.12 57.67 75.13C57.67 66.14 64.96 58.85 73.95 58.85C82.94 58.85 90.23 66.14 90.23 75.13C90.23 84.12 82.94 91.41 73.95 91.41ZM162.3 92.73H95.11V57.54H162.3V92.73ZM183.85 91.41C174.86 91.41 167.57 84.12 167.57 75.13C167.57 66.14 174.86 58.85 183.85 58.85C192.84 58.85 200.13 66.14 200.13 75.13C200.13 84.12 192.84 91.41 183.85 91.41Z" fill="#F05330"/>
<path d="M37.16 50.2V99.45H220.25V50.2H37.16ZM73.95 91.41C64.96 91.41 57.67 84.12 57.67 75.13C57.67 66.14 64.96 58.85 73.95 58.85C82.94 58.85 90.23 66.14 90.23 75.13C90.23 84.12 82.94 91.41 73.95 91.41ZM162.3 92.73H95.11V57.54H162.3V92.73ZM183.85 91.41C174.86 91.41 167.57 84.12 167.57 75.13C167.57 66.14 174.86 58.85 183.85 58.85C192.84 58.85 200.13 66.14 200.13 75.13C200.13 84.12 192.84 91.41 183.85 91.41Z" fill="#20212B"/>
<path d="M29.77 17.18H27.06V17.45H29.77V17.18Z" fill="#EF3A24"/>
<path d="M223.51 17.45H218.13V17.18H223.51V17.45ZM212.75 17.45H207.37V17.18H212.75V17.45ZM201.99 17.45H196.61V17.18H201.99V17.45ZM191.22 17.45H185.84V17.18H191.22V17.45ZM180.46 17.45H175.08V17.18H180.46V17.45ZM169.7 17.45H164.32V17.18H169.7V17.45ZM158.94 17.45H153.56V17.18H158.94V17.45ZM148.18 17.45H142.79V17.18H148.18V17.45ZM137.41 17.45H132.03V17.18H137.41V17.45ZM126.65 17.45H121.27V17.18H126.65V17.45ZM115.89 17.45H110.51V17.18H115.89V17.45ZM105.13 17.45H99.75V17.18H105.13V17.45ZM94.36 17.45H88.98V17.18H94.36V17.45ZM83.6 17.45H78.22V17.18H83.6V17.45ZM72.83 17.45H67.45V17.18H72.83V17.45ZM62.07 17.45H56.69V17.18H62.07V17.45ZM51.31 17.45H45.93V17.18H51.31V17.45ZM40.55 17.45H35.17V17.18H40.55V17.45Z" fill="#EF3A24"/>
<path d="M231.61 17.18H228.9V17.45H231.61V17.18Z" fill="#EF3A24"/>
<path d="M29.42 26.27H26.71V26.54H29.42V26.27Z" fill="#EF3A24"/>
<path d="M223.16 26.54H217.78V26.27H223.16V26.54ZM212.4 26.54H207.02V26.27H212.4V26.54ZM201.64 26.54H196.26V26.27H201.64V26.54ZM190.87 26.54H185.49V26.27H190.87V26.54ZM180.11 26.54H174.73V26.27H180.11V26.54ZM169.35 26.54H163.97V26.27H169.35V26.54ZM158.59 26.54H153.21V26.27H158.59V26.54ZM147.83 26.54H142.45V26.27H147.83V26.54ZM137.06 26.54H131.68V26.27H137.06V26.54ZM126.3 26.54H120.92V26.27H126.3V26.54ZM115.53 26.54H110.15V26.27H115.53V26.54ZM104.77 26.54H99.3899V26.27H104.77V26.54ZM94.0099 26.54H88.6299V26.27H94.0099V26.54ZM83.2499 26.54H77.8699V26.27H83.2499V26.54ZM72.4899 26.54H67.1099V26.27H72.4899V26.54ZM61.7199 26.54H56.3399V26.27H61.7199V26.54ZM50.9599 26.54H45.5799V26.27H50.9599V26.54ZM40.1899 26.54H34.8099V26.27H40.1899V26.54Z" fill="#EF3A24"/>
<path d="M231.25 26.27H228.54V26.54H231.25V26.27Z" fill="#EF3A24"/>
<path d="M29.07 35.36H26.36V35.63H29.07V35.36Z" fill="#EF3A24"/>
<path d="M222.81 35.63H217.43V35.36H222.81V35.63ZM212.05 35.63H206.67V35.36H212.05V35.63ZM201.29 35.63H195.91V35.36H201.29V35.63ZM190.53 35.63H185.15V35.36H190.53V35.63ZM179.77 35.63H174.39V35.36H179.77V35.63ZM169.01 35.63H163.63V35.36H169.01V35.63ZM158.24 35.63H152.86V35.36H158.24V35.63ZM147.48 35.63H142.1V35.36H147.48V35.63ZM136.71 35.63H131.33V35.36H136.71V35.63ZM125.95 35.63H120.57V35.36H125.95V35.63ZM115.18 35.63H109.8V35.36H115.18V35.63ZM104.42 35.63H99.04V35.36H104.42V35.63ZM93.65 35.63H88.27V35.36H93.65V35.63ZM82.89 35.63H77.51V35.36H82.89V35.63ZM72.13 35.63H66.75V35.36H72.13V35.63ZM61.36 35.63H55.98V35.36H61.36V35.63ZM50.6 35.63H45.21V35.36H50.6V35.63ZM39.83 35.63H34.45V35.36H39.83V35.63Z" fill="#EF3A24"/>
<path d="M230.9 35.36H228.19V35.63H230.9V35.36Z" fill="#EF3A24"/>
<path opacity="0.7" d="M188.4 162.24C186.16 162.24 184.34 160.41 184.34 158.17C184.34 155.93 186.16 154.11 188.4 154.11C190.64 154.11 192.46 155.93 192.46 158.17C192.46 160.41 190.64 162.24 188.4 162.24ZM188.4 155.2C186.76 155.2 185.42 156.53 185.42 158.17C185.42 159.81 186.75 161.14 188.4 161.14C190.05 161.14 191.38 159.81 191.38 158.17C191.38 156.53 190.04 155.2 188.4 155.2Z" fill="#301500"/>
<path opacity="0.7" d="M164.58 158.79H161.63C160.11 158.79 158.88 157.56 158.88 156.04V153.09C158.88 151.57 160.11 150.34 161.63 150.34H164.58C166.1 150.34 167.33 151.57 167.33 153.09V156.04C167.33 157.56 166.1 158.79 164.58 158.79ZM161.63 151.42C160.71 151.42 159.96 152.17 159.96 153.09V156.04C159.96 156.96 160.71 157.71 161.63 157.71H164.58C165.5 157.71 166.25 156.96 166.25 156.04V153.09C166.25 152.17 165.5 151.42 164.58 151.42H161.63Z" fill="#301500"/>
<path opacity="0.7" d="M65.55 161.35C63.31 161.35 61.49 159.52 61.49 157.29C61.49 155.06 63.31 153.23 65.55 153.23C67.79 153.23 69.61 155.05 69.61 157.29C69.61 159.53 67.79 161.35 65.55 161.35ZM65.55 154.31C63.91 154.31 62.57 155.64 62.57 157.29C62.57 158.94 63.9 160.27 65.55 160.27C67.2 160.27 68.53 158.93 68.53 157.29C68.53 155.65 67.2 154.31 65.55 154.31Z" fill="#301500"/>
<path opacity="0.7" d="M92.33 157.9H89.38C87.86 157.9 86.63 156.67 86.63 155.15V152.2C86.63 150.68 87.86 149.45 89.38 149.45H92.33C93.85 149.45 95.08 150.68 95.08 152.2V155.15C95.08 156.67 93.84 157.9 92.33 157.9ZM89.38 150.53C88.46 150.53 87.71 151.28 87.71 152.2V155.15C87.71 156.07 88.46 156.82 89.38 156.82H92.33C93.25 156.82 94 156.07 94 155.15V152.2C94 151.28 93.25 150.53 92.33 150.53H89.38Z" fill="#301500"/>
<path opacity="0.6" d="M162.29 57.54H95.1V92.73H162.29V57.54Z" fill="#806448"/>
</g>
<defs>
<filter id="filter0_d_18_86" x="0" y="0" width="285.07" height="189.64" filterUnits="userSpaceOnUse" color-interpolation-filters="sRGB">
<feFlood flood-opacity="0" result="BackgroundImageFix"/>
<feColorMatrix in="SourceAlpha" type="matrix" values="0 0 0 0 0 0 0 0 0 0 0 0 0 0 0 0 0 0 127 0" result="hardAlpha"/>
<feOffset dx="17" dy="15"/>
<feGaussianBlur stdDeviation="4.5"/>
<feComposite in2="hardAlpha" operator="out"/>
<feColorMatrix type="matrix" values="0 0 0 0 0 0 0 0 0 0 0 0 0 0 0 0 0 0 0.5 0"/>
<feBlend mode="normal" in2="BackgroundImageFix" result="effect1_dropShadow_18_86"/>
<feBlend mode="normal" in="SourceGraphic" in2="effect1_dropShadow_18_86" result="shape"/>
</filter>
</defs>
</svg>
