<svg width="388" height="294" viewBox="0 0 388 294" fill="none" xmlns="http://www.w3.org/2000/svg">
<g filter="url(#filter0_d_18_86)">
<path d="M154.5 128.13C154.5 137.28 147.09 144.69 137.94 144.69C128.79 144.69 121.38 137.28 121.38 128.13C121.38 118.98 128.79 111.57 137.94 111.57C147.09 111.57 154.5 118.98 154.5 128.13Z" fill="#B09F86"/>
<path d="M264.41 128.13C264.41 137.28 257 144.69 247.85 144.69C238.7 144.69 231.29 137.28 231.29 128.13C231.29 118.98 238.7 111.57 247.85 111.57C257 111.57 264.41 118.98 264.41 128.13Z" fill="#B09F86"/>
<path d="M314.44 53.54H72.63C68.16 53.54 64.54 57.19 64.54 61.68V209.95C64.54 214.45 68.16 218.09 72.63 218.09H314.44C318.91 218.09 322.53 214.44 322.53 209.95V61.68C322.53 57.19 318.91 53.54 314.44 53.54ZM90.78 206.36C89.52 206.36 88.49 205.34 88.49 204.07C88.49 202.8 89.51 201.78 90.78 201.78C92.05 201.78 93.07 202.81 93.07 204.07C93.07 205.33 92.04 206.36 90.78 206.36ZM129.56 213.35C127.87 213.35 126.5 211.98 126.5 210.29C126.5 208.6 127.87 207.23 129.56 207.23C131.25 207.23 132.62 208.6 132.62 210.29C132.62 211.98 131.25 213.35 129.56 213.35ZM137.96 144.41C128.97 144.41 121.68 137.12 121.68 128.13C121.68 119.14 128.97 111.85 137.96 111.85C146.95 111.85 154.24 119.14 154.24 128.13C154.24 137.12 146.95 144.41 137.96 144.41ZM158 208.15C158 209.07 157.25 209.82 156.34 209.82H153.39C152.47 209.82 151.73 209.07 151.73 208.15V205.2C151.73 204.28 152.48 203.54 153.39 203.54H156.34C157.25 203.54 158 204.28 158 205.2V208.15ZM159.11 110.54H226.3V145.73H159.11V110.54ZM230.25 209.04C230.25 209.96 229.5 210.7 228.59 210.7H225.64C224.72 210.7 223.97 209.96 223.97 209.04V206.09C223.97 205.17 224.72 204.42 225.64 204.42H228.59C229.51 204.42 230.25 205.17 230.25 206.09V209.04ZM252.41 214.26C250.71 214.26 249.33 212.88 249.33 211.18C249.33 209.48 250.71 208.1 252.41 208.1C254.11 208.1 255.49 209.48 255.49 211.18C255.49 212.88 254.11 214.26 252.41 214.26ZM247.85 144.41C238.86 144.41 231.57 137.12 231.57 128.13C231.57 119.14 238.86 111.85 247.85 111.85C256.84 111.85 264.13 119.14 264.13 128.13C264.13 137.12 256.84 144.41 247.85 144.41ZM297.53 206.36C296.26 206.36 295.24 205.34 295.24 204.07C295.24 202.8 296.26 201.78 297.53 201.78C298.8 201.78 299.82 202.81 299.82 204.07C299.82 205.33 298.79 206.36 297.53 206.36Z" fill="#523118"/>
<path d="M314.44 218.64H72.63C67.87 218.64 64 214.75 64 209.96V61.68C64 56.9 67.87 53 72.63 53H314.44C319.2 53 323.07 56.9 323.07 61.68V209.95C323.07 214.74 319.2 218.63 314.44 218.63V218.64ZM72.63 54.09C68.47 54.09 65.08 57.5 65.08 61.68V209.95C65.08 214.14 68.47 217.55 72.63 217.55H314.44C318.6 217.55 321.99 214.14 321.99 209.95V61.68C321.99 57.49 318.6 54.09 314.44 54.09H72.63ZM226.83 146.27H158.56V109.99H226.83V146.27ZM159.64 145.19H225.75V111.08H159.64V145.19ZM247.84 144.95C238.57 144.95 231.02 137.41 231.02 128.13C231.02 118.85 238.56 111.31 247.84 111.31C257.12 111.31 264.66 118.85 264.66 128.13C264.66 137.41 257.12 144.95 247.84 144.95ZM247.84 112.4C239.16 112.4 232.11 119.46 232.11 128.13C232.11 136.8 239.17 143.87 247.84 143.87C256.51 143.87 263.58 136.81 263.58 128.13C263.58 119.45 256.52 112.4 247.84 112.4ZM137.94 144.95C128.66 144.95 121.12 137.41 121.12 128.13C121.12 118.85 128.66 111.31 137.94 111.31C147.22 111.31 154.76 118.85 154.76 128.13C154.76 137.41 147.22 144.95 137.94 144.95ZM137.94 112.4C129.26 112.4 122.2 119.46 122.2 128.13C122.2 136.8 129.26 143.87 137.94 143.87C146.62 143.87 153.67 136.81 153.67 128.13C153.67 119.45 146.61 112.4 137.94 112.4Z" fill="#301500"/>
<path opacity="0.7" d="M215.76 217.56H166.81V202.97H215.76V217.56ZM167.9 217.56H214.68V206.33H167.9V217.56Z" fill="#806448"/>
<path d="M137.95 62.34C101.67 62.34 72.15 91.86 72.15 128.13C72.15 164.4 101.67 193.92 137.94 193.92C174.21 193.92 203.73 164.4 203.73 128.13C203.73 91.86 174.22 62.34 137.95 62.34ZM137.95 144.4C128.96 144.4 121.67 137.11 121.67 128.12C121.67 119.13 128.96 111.84 137.95 111.84C146.94 111.84 154.23 119.13 154.23 128.12C154.23 137.11 146.94 144.4 137.95 144.4Z" fill="#27171A"/>
<path d="M247.85 97.62C231.03 97.62 217.34 111.31 217.34 128.14C217.34 144.97 231.03 158.65 247.85 158.65C264.67 158.65 278.36 144.96 278.36 128.14C278.36 111.32 264.68 97.62 247.85 97.62ZM247.85 144.41C238.86 144.41 231.57 137.12 231.57 128.13C231.57 119.14 238.86 111.85 247.85 111.85C256.84 111.85 264.13 119.14 264.13 128.13C264.13 137.12 256.84 144.41 247.85 144.41Z" fill="#27171A"/>
<path d="M137.95 144.95C128.68 144.95 121.13 137.41 121.13 128.13C121.13 118.85 128.67 111.31 137.95 111.31C147.23 111.31 154.77 118.85 154.77 128.13C154.77 137.41 147.23 144.95 137.95 144.95ZM137.95 112.4C129.27 112.4 122.22 119.46 122.22 128.13C122.22 136.8 129.28 143.87 137.95 143.87C146.62 143.87 153.69 136.81 153.69 128.13C153.69 119.45 146.63 112.4 137.95 112.4Z" fill="white"/>
<path d="M137.95 113.68C129.98 113.68 123.5 120.16 123.5 128.13C123.5 136.1 129.99 142.59 137.95 142.59C145.91 142.59 152.41 136.1 152.41 128.13C152.41 120.16 145.92 113.68 137.95 113.68ZM149.71 133.84L146.57 131.87L143.97 136.02L146.77 137.78C144.61 139.76 141.8 141.01 138.69 141.19L138.9 137.42L134.01 137.15L133.82 140.55C130.91 139.58 128.46 137.61 126.86 135.06L130.33 133.38L128.19 128.97L125.08 130.48C124.94 129.71 124.86 128.93 124.86 128.13C124.86 125.8 125.48 123.61 126.56 121.7L129.71 123.93L132.54 119.93L129.74 117.95C131.68 116.38 134.06 115.36 136.67 115.1V118.9H141.57V115.56C144.49 116.4 147 118.23 148.7 120.67L145.45 122.47L147.82 126.76L150.69 125.17C150.91 126.13 151.04 127.11 151.04 128.13C151.04 130.18 150.55 132.11 149.71 133.84Z" fill="#D7CEC2"/>
<path d="M247.85 144.95C238.58 144.95 231.03 137.41 231.03 128.13C231.03 118.85 238.57 111.31 247.85 111.31C257.13 111.31 264.67 118.85 264.67 128.13C264.67 137.41 257.13 144.95 247.85 144.95ZM247.85 112.4C239.17 112.4 232.12 119.46 232.12 128.13C232.12 136.8 239.18 143.87 247.85 143.87C256.52 143.87 263.59 136.81 263.59 128.13C263.59 119.45 256.53 112.4 247.85 112.4Z" fill="white"/>
<path d="M247.85 113.68C239.88 113.68 233.39 120.16 233.39 128.13C233.39 136.1 239.87 142.59 247.85 142.59C255.83 142.59 262.3 136.1 262.3 128.13C262.3 120.16 255.82 113.68 247.85 113.68ZM259.61 133.84L256.47 131.87L253.87 136.02L256.67 137.78C254.51 139.76 251.7 141.01 248.59 141.19L248.8 137.42L243.91 137.15L243.72 140.55C240.81 139.58 238.36 137.61 236.76 135.06L240.22 133.38L238.09 128.97L234.97 130.48C234.83 129.71 234.75 128.93 234.75 128.13C234.75 125.8 235.37 123.61 236.45 121.7L239.61 123.93L242.44 119.93L239.64 117.95C241.57 116.38 243.96 115.36 246.56 115.1V118.9H251.46V115.56C254.38 116.4 256.88 118.23 258.58 120.67L255.33 122.47L257.7 126.76L260.57 125.17C260.79 126.13 260.92 127.11 260.92 128.13C260.92 130.18 260.43 132.11 259.59 133.84H259.61Z" fill="#D7CEC2"/>
<path d="M251.13 148.18H135.38C129.67 148.18 117.88 143.4 117.88 128.64C118.37 113.99 130.43 108.1 135.38 108.1H251.13C254.7 108.1 267.49 112.97 268.08 128.43C268.08 143.26 254.72 148.18 251.13 148.18ZM135.38 110.26C131.05 110.26 120.48 115.56 120.05 128.67C120.05 141.76 130.38 146.01 135.38 146.01H251.13C254.26 146.01 265.91 141.63 265.91 128.47C265.4 114.83 254.11 110.26 251.13 110.26H135.38Z" fill="white"/>
<path opacity="0.7" d="M247.85 201.41C214.66 201.41 196.07 181.7 193.52 178.82C190.77 181.65 170.39 201.41 137.95 201.41C87.32 201.41 69.62 157.83 69.45 157.39L69.42 157.24V90.01L69.62 89.89L120.04 59.29H265.91L266.01 59.34L316.83 87.72V157.35L316.78 157.44C305.71 177.5 284.77 201.41 247.85 201.41ZM193.56 177.58L193.86 177.95C194.04 178.18 212.63 200.59 247.85 200.59C283.07 200.59 305.04 176.98 316.02 157.13V88.19L265.7 60.1H120.27L70.23 90.47V157.17C71.04 159.14 88.82 200.6 137.94 200.6C172.33 200.6 193.02 178.17 193.23 177.94L193.55 177.59L193.56 177.58Z" fill="#301500"/>
<path opacity="0.7" d="M97.92 64.11H83.63V55.83H97.92V64.12V64.11ZM84.45 63.3H97.11V56.64H84.45V63.3Z" fill="#806448"/>
<path opacity="0.7" d="M304.25 63.84H289.96V55.56H304.25V63.85V63.84ZM290.78 63.02H303.44V56.37H290.78V63.03V63.02Z" fill="#806448"/>
<path opacity="0.7" d="M297.52 211.75C293.28 211.75 289.83 208.3 289.83 204.07C289.83 199.84 293.28 196.38 297.52 196.38C301.76 196.38 305.2 199.83 305.2 204.07C305.2 208.31 301.76 211.75 297.52 211.75ZM297.52 197.2C293.73 197.2 290.65 200.28 290.65 204.07C290.65 207.86 293.73 210.94 297.52 210.94C301.31 210.94 304.39 207.86 304.39 204.07C304.39 200.28 301.31 197.2 297.52 197.2Z" fill="#301500"/>
<path opacity="0.7" d="M297.52 207.37C295.7 207.37 294.22 205.89 294.22 204.07C294.22 202.25 295.7 200.77 297.52 200.77C299.34 200.77 300.82 202.25 300.82 204.07C300.82 205.89 299.34 207.37 297.52 207.37ZM297.52 201.77C296.25 201.77 295.21 202.8 295.21 204.07C295.21 205.34 296.25 206.38 297.52 206.38C298.79 206.38 299.82 205.34 299.82 204.07C299.82 202.8 298.79 201.77 297.52 201.77Z" fill="#301500"/>
<path opacity="0.7" d="M90.78 211.75C86.54 211.75 83.1 208.3 83.1 204.07C83.1 199.84 86.54 196.38 90.78 196.38C95.02 196.38 98.46 199.83 98.46 204.07C98.46 208.31 95.01 211.75 90.78 211.75ZM90.78 197.2C86.99 197.2 83.91 200.28 83.91 204.07C83.91 207.86 86.99 210.94 90.78 210.94C94.57 210.94 97.65 207.86 97.65 204.07C97.65 200.28 94.57 197.2 90.78 197.2Z" fill="#301500"/>
<path opacity="0.7" d="M90.78 207.38C88.96 207.38 87.47 205.89 87.47 204.07C87.47 202.25 88.95 200.76 90.78 200.76C92.61 200.76 94.09 202.25 94.09 204.07C94.09 205.89 92.61 207.38 90.78 207.38ZM90.78 201.76C89.5 201.76 88.47 202.79 88.47 204.07C88.47 205.35 89.5 206.38 90.78 206.38C92.06 206.38 93.09 205.34 93.09 204.07C93.09 202.8 92.06 201.76 90.78 201.76Z" fill="#301500"/>
<path d="M317.34 210.25C317.34 212.19 315.76 213.77 313.82 213.77C311.88 213.77 310.3 212.2 310.3 210.25C310.3 208.3 311.87 206.73 313.82 206.73C315.77 206.73 317.34 208.3 317.34 210.25Z" fill="#301500"/>
<path d="M313.82 214.04C311.73 214.04 310.03 212.34 310.03 210.25C310.03 208.16 311.73 206.46 313.82 206.46C315.91 206.46 317.61 208.16 317.61 210.25C317.61 212.34 315.91 214.04 313.82 214.04ZM313.82 207C312.03 207 310.57 208.46 310.57 210.25C310.57 212.04 312.03 213.5 313.82 213.5C315.61 213.5 317.07 212.04 317.07 210.25C317.07 208.46 315.61 207 313.82 207Z" fill="#806448"/>
<path d="M315.89 209.98H314.18V208.3H313.64V209.98H311.89V210.52H313.64V212.2H314.18V210.52H315.89V209.98Z" fill="#806448"/>
<path d="M197.11 191.13C197.11 193.08 195.54 194.65 193.59 194.65C191.64 194.65 190.07 193.08 190.07 191.13C190.07 189.18 191.65 187.61 193.59 187.61C195.53 187.61 197.11 189.18 197.11 191.13Z" fill="#301500"/>
<path d="M193.59 194.92C191.5 194.92 189.8 193.22 189.8 191.13C189.8 189.04 191.5 187.34 193.59 187.34C195.68 187.34 197.38 189.04 197.38 191.13C197.38 193.22 195.68 194.92 193.59 194.92ZM193.59 187.88C191.8 187.88 190.34 189.33 190.34 191.13C190.34 192.93 191.8 194.38 193.59 194.38C195.38 194.38 196.84 192.93 196.84 191.13C196.84 189.33 195.38 187.88 193.59 187.88Z" fill="#806448"/>
<path d="M195.66 190.86H193.96V189.18H193.41V190.86H191.66V191.4H193.41V193.08H193.96V191.4H195.66V190.86Z" fill="#806448"/>
<path d="M76.76 210.25C76.76 212.19 75.19 213.77 73.24 213.77C71.29 213.77 69.72 212.2 69.72 210.25C69.72 208.3 71.3 206.73 73.24 206.73C75.18 206.73 76.76 208.3 76.76 210.25Z" fill="#301500"/>
<path d="M73.24 214.04C71.15 214.04 69.45 212.34 69.45 210.25C69.45 208.16 71.15 206.46 73.24 206.46C75.33 206.46 77.03 208.16 77.03 210.25C77.03 212.34 75.33 214.04 73.24 214.04ZM73.24 207C71.45 207 69.99 208.46 69.99 210.25C69.99 212.04 71.45 213.5 73.24 213.5C75.03 213.5 76.49 212.04 76.49 210.25C76.49 208.46 75.04 207 73.24 207Z" fill="#806448"/>
<path d="M75.32 209.98H73.61V208.3H73.06V209.98H71.31V210.52H73.06V212.2H73.61V210.52H75.32V209.98Z" fill="#806448"/>
<path d="M316.74 59.97C316.74 61.91 315.17 63.49 313.22 63.49C311.27 63.49 309.69 61.91 309.69 59.97C309.69 58.03 311.27 56.45 313.22 56.45C315.17 56.45 316.74 58.03 316.74 59.97Z" fill="#301500"/>
<path d="M313.22 63.76C311.13 63.76 309.43 62.06 309.43 59.97C309.43 57.88 311.13 56.18 313.22 56.18C315.31 56.18 317.01 57.88 317.01 59.97C317.01 62.06 315.31 63.76 313.22 63.76ZM313.22 56.72C311.43 56.72 309.97 58.18 309.97 59.97C309.97 61.76 311.43 63.22 313.22 63.22C315.01 63.22 316.47 61.76 316.47 59.97C316.47 58.18 315.01 56.72 313.22 56.72Z" fill="#806448"/>
<path d="M315.29 59.7H313.59V58.02H313.04V59.7H311.29V60.24H313.04V61.92H313.59V60.24H315.29V59.7Z" fill="#806448"/>
<path d="M76.16 59.97C76.16 61.91 74.58 63.49 72.64 63.49C70.7 63.49 69.12 61.91 69.12 59.97C69.12 58.03 70.7 56.45 72.64 56.45C74.58 56.45 76.16 58.03 76.16 59.97Z" fill="#301500"/>
<path d="M72.64 63.76C70.55 63.76 68.85 62.06 68.85 59.97C68.85 57.88 70.55 56.18 72.64 56.18C74.73 56.18 76.43 57.88 76.43 59.97C76.43 62.06 74.73 63.76 72.64 63.76ZM72.64 56.72C70.85 56.72 69.39 58.18 69.39 59.97C69.39 61.76 70.85 63.22 72.64 63.22C74.43 63.22 75.89 61.76 75.89 59.97C75.89 58.18 74.43 56.72 72.64 56.72Z" fill="#806448"/>
<path d="M74.72 59.7H73.01V58.02H72.47V59.7H70.72V60.24H72.47V61.92H73.01V60.24H74.72V59.7Z" fill="#806448"/>
<path d="M284.54 217.56H102.53L111.16 176.67H275.45L284.54 217.56ZM103.36 217.56H283.7L273.58 180.29H112.24L103.37 217.56H103.36Z" fill="#806448"/>
<path d="M309 78.73L298.4 67.1H90.2L76.87 79.76V92.04H309V78.73Z" fill="#D7C6AF"/>
<path d="M309 163.18H76.87V173.77H309V163.18Z" fill="#D7C6AF"/>
<path d="M76.87 92.04V163.18H309V92.04H76.87ZM137.95 144.41C128.96 144.41 121.67 137.12 121.67 128.13C121.67 119.14 128.96 111.85 137.95 111.85C146.94 111.85 154.23 119.14 154.23 128.13C154.23 137.12 146.94 144.41 137.95 144.41ZM226.3 145.73H159.11V110.54H226.3V145.73ZM247.85 144.41C238.86 144.41 231.57 137.12 231.57 128.13C231.57 119.14 238.86 111.85 247.85 111.85C256.84 111.85 264.13 119.14 264.13 128.13C264.13 137.12 256.84 144.41 247.85 144.41Z" fill="#F05330"/>
<path d="M101.16 103.2V152.45H284.25V103.2H101.16ZM137.95 144.41C128.96 144.41 121.67 137.12 121.67 128.13C121.67 119.14 128.96 111.85 137.95 111.85C146.94 111.85 154.23 119.14 154.23 128.13C154.23 137.12 146.94 144.41 137.95 144.41ZM226.3 145.73H159.11V110.54H226.3V145.73ZM247.85 144.41C238.86 144.41 231.57 137.12 231.57 128.13C231.57 119.14 238.86 111.85 247.85 111.85C256.84 111.85 264.13 119.14 264.13 128.13C264.13 137.12 256.84 144.41 247.85 144.41Z" fill="#20212B"/>
<path d="M93.77 70.18H91.06V70.45H93.77V70.18Z" fill="#EF3A24"/>
<path d="M287.51 70.45H282.13V70.18H287.51V70.45ZM276.75 70.45H271.37V70.18H276.75V70.45ZM265.99 70.45H260.61V70.18H265.99V70.45ZM255.22 70.45H249.84V70.18H255.22V70.45ZM244.46 70.45H239.08V70.18H244.46V70.45ZM233.7 70.45H228.32V70.18H233.7V70.45ZM222.94 70.45H217.56V70.18H222.94V70.45ZM212.18 70.45H206.79V70.18H212.18V70.45ZM201.41 70.45H196.03V70.18H201.41V70.45ZM190.65 70.45H185.27V70.18H190.65V70.45ZM179.89 70.45H174.51V70.18H179.89V70.45ZM169.13 70.45H163.75V70.18H169.13V70.45ZM158.36 70.45H152.98V70.18H158.36V70.45ZM147.6 70.45H142.22V70.18H147.6V70.45ZM136.83 70.45H131.45V70.18H136.83V70.45ZM126.07 70.45H120.69V70.18H126.07V70.45ZM115.31 70.45H109.93V70.18H115.31V70.45ZM104.55 70.45H99.17V70.18H104.55V70.45Z" fill="#EF3A24"/>
<path d="M295.61 70.18H292.9V70.45H295.61V70.18Z" fill="#EF3A24"/>
<path d="M93.42 79.27H90.71V79.54H93.42V79.27Z" fill="#EF3A24"/>
<path d="M287.16 79.54H281.78V79.27H287.16V79.54ZM276.4 79.54H271.02V79.27H276.4V79.54ZM265.64 79.54H260.26V79.27H265.64V79.54ZM254.87 79.54H249.49V79.27H254.87V79.54ZM244.11 79.54H238.73V79.27H244.11V79.54ZM233.35 79.54H227.97V79.27H233.35V79.54ZM222.59 79.54H217.21V79.27H222.59V79.54ZM211.83 79.54H206.45V79.27H211.83V79.54ZM201.06 79.54H195.68V79.27H201.06V79.54ZM190.3 79.54H184.92V79.27H190.3V79.54ZM179.53 79.54H174.15V79.27H179.53V79.54ZM168.77 79.54H163.39V79.27H168.77V79.54ZM158.01 79.54H152.63V79.27H158.01V79.54ZM147.25 79.54H141.87V79.27H147.25V79.54ZM136.49 79.54H131.11V79.27H136.49V79.54ZM125.72 79.54H120.34V79.27H125.72V79.54ZM114.96 79.54H109.58V79.27H114.96V79.54ZM104.19 79.54H98.81V79.27H104.19V79.54Z" fill="#EF3A24"/>
<path d="M295.25 79.27H292.54V79.54H295.25V79.27Z" fill="#EF3A24"/>
<path d="M93.07 88.36H90.36V88.63H93.07V88.36Z" fill="#EF3A24"/>
<path d="M286.81 88.63H281.43V88.36H286.81V88.63ZM276.05 88.63H270.67V88.36H276.05V88.63ZM265.29 88.63H259.91V88.36H265.29V88.63ZM254.53 88.63H249.15V88.36H254.53V88.63ZM243.77 88.63H238.39V88.36H243.77V88.63ZM233.01 88.63H227.63V88.36H233.01V88.63ZM222.24 88.63H216.86V88.36H222.24V88.63ZM211.48 88.63H206.1V88.36H211.48V88.63ZM200.71 88.63H195.33V88.36H200.71V88.63ZM189.95 88.63H184.57V88.36H189.95V88.63ZM179.18 88.63H173.8V88.36H179.18V88.63ZM168.42 88.63H163.04V88.36H168.42V88.63ZM157.65 88.63H152.27V88.36H157.65V88.63ZM146.89 88.63H141.51V88.36H146.89V88.63ZM136.13 88.63H130.75V88.36H136.13V88.63ZM125.36 88.63H119.98V88.36H125.36V88.63ZM114.6 88.63H109.21V88.36H114.6V88.63ZM103.83 88.63H98.45V88.36H103.83V88.63Z" fill="#EF3A24"/>
<path d="M294.9 88.36H292.19V88.63H294.9V88.36Z" fill="#EF3A24"/>
<path opacity="0.7" d="M252.4 215.24C250.16 215.24 248.34 213.41 248.34 211.17C248.34 208.93 250.16 207.11 252.4 207.11C254.64 207.11 256.46 208.93 256.46 211.17C256.46 213.41 254.64 215.24 252.4 215.24ZM252.4 208.2C250.76 208.2 249.42 209.53 249.42 211.17C249.42 212.81 250.75 214.14 252.4 214.14C254.05 214.14 255.38 212.81 255.38 211.17C255.38 209.53 254.04 208.2 252.4 208.2Z" fill="#301500"/>
<path opacity="0.7" d="M228.58 211.79H225.63C224.11 211.79 222.88 210.56 222.88 209.04V206.09C222.88 204.57 224.11 203.34 225.63 203.34H228.58C230.1 203.34 231.33 204.57 231.33 206.09V209.04C231.33 210.56 230.1 211.79 228.58 211.79ZM225.63 204.42C224.71 204.42 223.96 205.17 223.96 206.09V209.04C223.96 209.96 224.71 210.71 225.63 210.71H228.58C229.5 210.71 230.25 209.96 230.25 209.04V206.09C230.25 205.17 229.5 204.42 228.58 204.42H225.63Z" fill="#301500"/>
<path opacity="0.7" d="M129.55 214.35C127.31 214.35 125.49 212.52 125.49 210.29C125.49 208.06 127.31 206.23 129.55 206.23C131.79 206.23 133.61 208.05 133.61 210.29C133.61 212.53 131.79 214.35 129.55 214.35ZM129.55 207.31C127.91 207.31 126.57 208.64 126.57 210.29C126.57 211.94 127.9 213.27 129.55 213.27C131.2 213.27 132.53 211.93 132.53 210.29C132.53 208.65 131.2 207.31 129.55 207.31Z" fill="#301500"/>
<path opacity="0.7" d="M156.33 210.9H153.38C151.86 210.9 150.63 209.67 150.63 208.15V205.2C150.63 203.68 151.86 202.45 153.38 202.45H156.33C157.85 202.45 159.08 203.68 159.08 205.2V208.15C159.08 209.67 157.84 210.9 156.33 210.9ZM153.38 203.53C152.46 203.53 151.71 204.28 151.71 205.2V208.15C151.71 209.07 152.46 209.82 153.38 209.82H156.33C157.25 209.82 158 209.07 158 208.15V205.2C158 204.28 157.25 203.53 156.33 203.53H153.38Z" fill="#301500"/>
<path opacity="0.6" d="M226.29 110.54H159.1V145.73H226.29V110.54Z" fill="#806448"/>
</g>
<defs>
<filter id="filter0_d_18_86" x="0" y="0" width="387.07" height="293.64" filterUnits="userSpaceOnUse" color-interpolation-filters="sRGB">
<feFlood flood-opacity="0" result="BackgroundImageFix"/>
<feColorMatrix in="SourceAlpha" type="matrix" values="0 0 0 0 0 0 0 0 0 0 0 0 0 0 0 0 0 0 127 0" result="hardAlpha"/>
<feOffset dy="11"/>
<feGaussianBlur stdDeviation="32"/>
<feComposite in2="hardAlpha" operator="out"/>
<feColorMatrix type="matrix" values="0 0 0 0 0 0 0 0 0 0 0 0 0 0 0 0 0 0 1 0"/>
<feBlend mode="normal" in2="BackgroundImageFix" result="effect1_dropShadow_18_86"/>
<feBlend mode="normal" in="SourceGraphic" in2="effect1_dropShadow_18_86" result="shape"/>
</filter>
</defs>
</svg>
